<svg width="375" height="329" viewBox="0 0 375 329" fill="none" xmlns="http://www.w3.org/2000/svg">
<mask id="path-1-inside-1_1035_453" fill="white">
<path d="M375 0H0V47H375V0Z"/>
</mask>
<path d="M375 1H0V-1H375V1Z" fill="#2EB2DB" mask="url(#path-1-inside-1_1035_453)"/>
<path d="M32.8 9.4V9H39.92V31.72C39.92 33.8267 39.4933 35.24 38.64 35.96C37.7867 36.6533 36.4933 37 34.76 37C33.0533 37 31.5333 36.7467 30.2 36.24L30.32 35.92C31.6 36.4267 32.92 36.68 34.28 36.68C35.1867 36.68 35.7867 36.2933 36.08 35.52C36.4 34.7467 36.56 33.4933 36.56 31.76V9.4H32.8ZM47.6388 7C48.0921 7 48.4654 7.16 48.7588 7.48C49.0788 7.8 49.2388 8.13333 49.2388 8.48C49.2388 8.82666 48.6388 11.32 47.4388 15.96H46.9188L47.7588 10.24H47.6388C47.2121 10.24 46.8254 10.08 46.4788 9.76C46.1588 9.44 45.9988 9.06667 45.9988 8.64C45.9988 8.18667 46.1588 7.8 46.4788 7.48C46.7988 7.16 47.1854 7 47.6388 7ZM71.8294 9V9.4H59.2294V21.4H70.9094V21.8H59.2294V36.6H72.7094V37H55.9094V9H71.8294ZM91.685 10.68C89.2583 9.74667 86.965 9.28 84.805 9.28C82.6717 9.28 81.005 9.73333 79.805 10.64C78.605 11.5467 78.005 12.8 78.005 14.4C78.005 16.3467 79.0183 17.8533 81.045 18.92C81.9517 19.3733 82.9383 19.8 84.005 20.2C85.0983 20.5733 86.1917 21 87.285 21.48C88.3783 21.96 89.3783 22.5067 90.285 23.12C91.1917 23.7333 91.925 24.5867 92.485 25.68C93.045 26.7467 93.325 28.12 93.325 29.8C93.325 31.4533 92.8583 32.8667 91.925 34.04C90.9917 35.2133 89.8583 36.0133 88.525 36.44C87.2183 36.84 85.685 37.04 83.925 37.04C80.645 37.04 77.845 36.2267 75.525 34.6L75.725 34.28C76.605 34.9733 77.7383 35.5467 79.125 36C80.5383 36.4267 81.9783 36.64 83.445 36.64C85.605 36.64 87.445 36.1467 88.965 35.16C90.5117 34.1467 91.285 32.6667 91.285 30.72C91.285 28.5867 90.2717 26.92 88.245 25.72C87.3383 25.1867 86.3383 24.6933 85.245 24.24C84.1783 23.7867 83.0983 23.32 82.005 22.84C80.9117 22.3333 79.9117 21.7733 79.005 21.16C76.9783 19.8267 75.965 17.9333 75.965 15.48C75.965 13.5333 76.6183 11.96 77.925 10.76C79.2317 9.53333 81.1917 8.92 83.805 8.92C86.445 8.92 89.125 9.37333 91.845 10.28L91.685 10.68ZM112.271 10.68C109.844 9.74667 107.551 9.28 105.391 9.28C103.258 9.28 101.591 9.73333 100.391 10.64C99.1909 11.5467 98.5909 12.8 98.5909 14.4C98.5909 16.3467 99.6043 17.8533 101.631 18.92C102.538 19.3733 103.524 19.8 104.591 20.2C105.684 20.5733 106.778 21 107.871 21.48C108.964 21.96 109.964 22.5067 110.871 23.12C111.778 23.7333 112.511 24.5867 113.071 25.68C113.631 26.7467 113.911 28.12 113.911 29.8C113.911 31.4533 113.444 32.8667 112.511 34.04C111.578 35.2133 110.444 36.0133 109.111 36.44C107.804 36.84 106.271 37.04 104.511 37.04C101.231 37.04 98.4309 36.2267 96.1109 34.6L96.3109 34.28C97.1909 34.9733 98.3243 35.5467 99.7109 36C101.124 36.4267 102.564 36.64 104.031 36.64C106.191 36.64 108.031 36.1467 109.551 35.16C111.098 34.1467 111.871 32.6667 111.871 30.72C111.871 28.5867 110.858 26.92 108.831 25.72C107.924 25.1867 106.924 24.6933 105.831 24.24C104.764 23.7867 103.684 23.32 102.591 22.84C101.498 22.3333 100.498 21.7733 99.5909 21.16C97.5643 19.8267 96.5509 17.9333 96.5509 15.48C96.5509 13.5333 97.2043 11.96 98.5109 10.76C99.8176 9.53333 101.778 8.92 104.391 8.92C107.031 8.92 109.711 9.37333 112.431 10.28L112.271 10.68ZM116.977 37H116.497L128.457 9L128.897 8.8L138.977 37H135.577L132.457 28.2H120.777L116.977 37ZM127.217 13.32L120.937 27.8H132.337L127.217 13.32ZM142.98 9.4V9H150.1V9.4H148.14V36.6H150.1V37H142.98V36.6H144.82V9.4H142.98ZM171.634 9V9.4H159.034V21.4H170.714V21.8H159.034V36.6H172.514V37H155.714V9H171.634Z" fill="#2EB2DB"/>
<mask id="path-4-inside-2_1035_453" fill="white">
<path d="M375 47H0V94H375V47Z"/>
</mask>
<path d="M375 48H0V46H375V48Z" fill="#2EB2DB" mask="url(#path-4-inside-2_1035_453)"/>
<path d="M158 56.04C159.173 55.9867 160.32 55.96 161.44 55.96C162.587 55.96 163.787 56.08 165.04 56.32C166.32 56.56 167.573 57.0133 168.8 57.68C170.053 58.32 171.107 59.16 171.96 60.2C172.84 61.2133 173.547 62.56 174.08 64.24C174.613 65.92 174.88 67.96 174.88 70.36C174.88 72.76 174.48 74.92 173.68 76.84C172.907 78.7333 171.84 80.1867 170.48 81.2C167.84 83.1733 164.653 84.16 160.92 84.16C159.613 84.16 158.24 84.1067 156.8 84H154.8V56.04H158ZM158.12 83.68C158.68 83.7333 159.387 83.76 160.24 83.76C161.093 83.76 161.733 83.7467 162.16 83.72C162.587 83.6933 163.173 83.5867 163.92 83.4C164.667 83.1867 165.36 82.9067 166 82.56C166.64 82.2133 167.307 81.7067 168 81.04C168.72 80.3467 169.333 79.5333 169.84 78.6C170.987 76.4133 171.56 73.56 171.56 70.04C171.56 67.5333 171.253 65.3733 170.64 63.56C170.027 61.72 169.32 60.36 168.52 59.48C167.747 58.6 166.8 57.9067 165.68 57.4C164.56 56.8667 163.667 56.56 163 56.48C162.333 56.4 161.56 56.36 160.68 56.36C159.8 56.36 158.947 56.4 158.12 56.48V83.68ZM181.803 54C182.256 54 182.629 54.16 182.923 54.48C183.243 54.8 183.403 55.1333 183.403 55.48C183.403 55.8267 182.803 58.32 181.603 62.96H181.083L181.923 57.24H181.803C181.376 57.24 180.989 57.08 180.643 56.76C180.323 56.44 180.163 56.0667 180.163 55.64C180.163 55.1867 180.323 54.8 180.643 54.48C180.963 54.16 181.349 54 181.803 54ZM190.073 56.4V56H197.193V56.4H195.233V83.6H197.193V84H190.073V83.6H191.913V56.4H190.073ZM203.128 84H202.608V56H203.968L220.608 81.88V56H221.128V84H218.208L203.128 60.8V84ZM235.159 84H231.839V56.4H224.919V56H242.119V56.4H235.159V84ZM262.048 56V56.4H249.448V68.4H261.128V68.8H249.448V83.6H262.928V84H246.128V56H262.048ZM279.093 84.16C274.106 84.16 270.413 82.7467 268.013 79.92C267.159 78.9067 266.466 77.56 265.933 75.88C265.399 74.2 265.133 72.16 265.133 69.76C265.133 67.36 265.519 65.2133 266.293 63.32C267.093 61.4 268.173 59.92 269.533 58.88C272.173 56.9333 275.359 55.96 279.093 55.96C280.293 55.96 281.466 56.0533 282.613 56.24C283.759 56.4 284.613 56.5733 285.173 56.76L286.013 57.04L285.893 57.44C283.813 56.72 281.546 56.36 279.093 56.36C276.266 56.36 273.906 57.28 272.013 59.12C270.573 60.48 269.559 62.48 268.973 65.12C268.626 66.6133 268.453 68.44 268.453 70.6C268.453 72.76 268.759 74.76 269.373 76.6C269.986 78.4133 270.679 79.76 271.453 80.64C272.253 81.52 273.213 82.2267 274.333 82.76C275.453 83.2667 276.346 83.56 277.013 83.64C277.679 83.72 278.466 83.76 279.373 83.76C280.306 83.76 281.546 83.6533 283.093 83.44V75.2H278.253V74.8H288.133V75.2H286.413V83.08C284.386 83.8 281.946 84.16 279.093 84.16ZM291.909 56.32C295.003 56.1067 297.736 56 300.109 56C306.696 56 309.989 58.2 309.989 62.6C309.989 64.4667 309.536 66.1333 308.629 67.6C307.723 69.0667 306.163 70.04 303.949 70.52L311.949 84H308.229L300.389 70.76H295.229V84H291.909V56.32ZM300.109 56.4C298.563 56.4 296.936 56.4933 295.229 56.68V70.36H301.149C304.909 70.2 306.789 67.64 306.789 62.68C306.789 60.6533 306.229 59.1067 305.109 58.04C303.989 56.9467 302.323 56.4 300.109 56.4ZM331.853 56V56.4H319.253V68.4H330.933V68.8H319.253V83.6H332.733V84H315.933V56H331.853ZM336.948 56.32C340.042 56.1067 342.775 56 345.148 56C351.735 56 355.028 58.2 355.028 62.6C355.028 64.4667 354.575 66.1333 353.668 67.6C352.762 69.0667 351.202 70.04 348.988 70.52L356.988 84H353.268L345.428 70.76H340.268V84H336.948V56.32ZM345.148 56.4C343.602 56.4 341.975 56.4933 340.268 56.68V70.36H346.188C349.948 70.2 351.828 67.64 351.828 62.68C351.828 60.6533 351.268 59.1067 350.148 58.04C349.028 56.9467 347.362 56.4 345.148 56.4Z" fill="#2EB2DB"/>
<mask id="path-7-inside-3_1035_453" fill="white">
<path d="M375 94H0V141H375V94Z"/>
</mask>
<path class="""""" d="M375 95H0V93H375V95Z" fill="#2EB2DB" mask="url(#path-7-inside-3_1035_453)"/>
<path d="M110.24 103.5H110.76V119.5C110.76 123.687 109.933 126.767 108.28 128.74C106.627 130.687 104.467 131.66 101.8 131.66C100.12 131.66 98.6933 131.513 97.52 131.22C96.3467 130.9 95.24 130.327 94.2 129.5C92.0667 127.847 91 124.513 91 119.5V103.5H94.32V119.46C94.32 124.313 95.0533 127.553 96.52 129.18C97.2667 129.98 98.04 130.527 98.84 130.82C99.6667 131.113 100.653 131.26 101.8 131.26C104.36 131.26 106.4 130.327 107.92 128.46C109.467 126.567 110.24 123.567 110.24 119.46V103.5Z" fill="#2EB2DB"/>
<path d="M116.086 131.5H115.566V103.5H116.926L133.566 129.38V103.5H134.086V131.5H131.166L116.086 108.3V131.5Z" fill="#2EB2DB"/>
<path d="M155.397 103.5V103.9H142.797V115.9H154.477V116.3H142.797V131.1H156.277V131.5H139.477V103.5H155.397Z" fill="#2EB2DB"/>
<path d="M181.085 131.5H177.765V103.9H170.845V103.5H188.045V103.9H181.085V131.5Z" fill="#2EB2DB"/>
<path d="M188.872 118.18C188.872 113.327 190.045 109.647 192.392 107.14C194.765 104.607 197.805 103.34 201.512 103.34C205.219 103.34 208.165 104.433 210.352 106.62C212.565 108.807 213.672 112.3 213.672 117.1C213.672 121.9 212.499 125.527 210.152 127.98C207.805 130.433 204.672 131.66 200.752 131.66C197.365 131.66 194.592 130.687 192.432 128.74C191.312 127.727 190.432 126.327 189.792 124.54C189.179 122.727 188.872 120.607 188.872 118.18ZM201.392 103.74C198.699 103.74 196.485 104.94 194.752 107.34C193.045 109.74 192.192 113.26 192.192 117.9C192.192 122.54 193.005 125.927 194.632 128.06C196.259 130.193 198.419 131.26 201.112 131.26C203.832 131.26 206.045 130.06 207.752 127.66C209.485 125.233 210.352 121.727 210.352 117.14C210.352 112.527 209.525 109.14 207.872 106.98C206.245 104.82 204.085 103.74 201.392 103.74Z" fill="#2EB2DB"/>
<path d="M237.31 103.5H237.83V119.5C237.83 123.687 237.004 126.767 235.35 128.74C233.697 130.687 231.537 131.66 228.87 131.66C227.19 131.66 225.764 131.513 224.59 131.22C223.417 130.9 222.31 130.327 221.27 129.5C219.137 127.847 218.07 124.513 218.07 119.5V103.5H221.39V119.46C221.39 124.313 222.124 127.553 223.59 129.18C224.337 129.98 225.11 130.527 225.91 130.82C226.737 131.113 227.724 131.26 228.87 131.26C231.43 131.26 233.47 130.327 234.99 128.46C236.537 126.567 237.31 123.567 237.31 119.46V103.5Z" fill="#2EB2DB"/>
<path d="M256.387 131.66C251.4 131.66 247.707 130.247 245.307 127.42C244.453 126.407 243.76 125.06 243.227 123.38C242.693 121.7 242.427 119.66 242.427 117.26C242.427 114.86 242.813 112.713 243.587 110.82C244.387 108.9 245.467 107.42 246.827 106.38C249.467 104.433 252.653 103.46 256.387 103.46C257.453 103.46 258.493 103.553 259.507 103.74C260.52 103.9 261.28 104.073 261.787 104.26L262.507 104.54L262.387 104.94C260.573 104.22 258.573 103.86 256.387 103.86C253.56 103.86 251.2 104.78 249.307 106.62C247.867 107.98 246.853 109.98 246.267 112.62C245.92 114.113 245.747 115.94 245.747 118.1C245.747 120.26 246.053 122.26 246.667 124.1C247.28 125.913 247.973 127.26 248.747 128.14C249.547 129.02 250.507 129.727 251.627 130.26C252.747 130.767 253.64 131.06 254.307 131.14C254.973 131.22 255.773 131.26 256.707 131.26C257.667 131.26 258.747 131.167 259.947 130.98C261.147 130.793 262.053 130.62 262.667 130.46L263.587 130.18L263.707 130.58C261.68 131.3 259.24 131.66 256.387 131.66Z" fill="#2EB2DB"/>
<path d="M270.434 131.5H267.114V103.5H270.434V116.38H283.434V103.5H286.754V131.5H283.434V116.78H270.434V131.5Z" fill="#2EB2DB"/>
<path d="M307.467 103.5V103.9H294.867V115.9H306.547V116.3H294.867V131.1H308.347V131.5H291.547V103.5H307.467Z" fill="#2EB2DB"/>
<mask id="path-10-inside-4_1035_453" fill="white">
<path d="M375 141H0V188H375V141Z"/>
</mask>
<path d="M375 142H0V140H375V142Z" fill="#2EB2DB" mask="url(#path-10-inside-4_1035_453)"/>
<path d="M20.8 150.32C23.8933 150.107 26.6133 150 28.96 150C35.5733 150 38.88 152.333 38.88 157C38.88 159.16 38.32 161.053 37.2 162.68C36.6133 163.56 35.7067 164.267 34.48 164.8C33.2533 165.307 31.7733 165.56 30.04 165.56H24.12V178H20.8V150.32ZM29 150.4C27.4533 150.4 25.8267 150.493 24.12 150.68V165.16H30.04C33.8 165 35.68 162.307 35.68 157.08C35.68 154.947 35.12 153.307 34 152.16C32.88 150.987 31.2133 150.4 29 150.4ZM58.8294 150V150.4H46.2294V162.4H57.9094V162.8H46.2294V177.6H59.7094V178H42.9094V150H58.8294ZM63.925 150.32C67.0183 150.107 69.7517 150 72.125 150C78.7117 150 82.005 152.2 82.005 156.6C82.005 158.467 81.5517 160.133 80.645 161.6C79.7383 163.067 78.1783 164.04 75.965 164.52L83.965 178H80.245L72.405 164.76H67.245V178H63.925V150.32ZM72.125 150.4C70.5783 150.4 68.9517 150.493 67.245 150.68V164.36H73.165C76.925 164.2 78.805 161.64 78.805 156.68C78.805 154.653 78.245 153.107 77.125 152.04C76.005 150.947 74.3383 150.4 72.125 150.4ZM102.708 151.68C100.282 150.747 97.9884 150.28 95.8284 150.28C93.6951 150.28 92.0284 150.733 90.8284 151.64C89.6284 152.547 89.0284 153.8 89.0284 155.4C89.0284 157.347 90.0418 158.853 92.0684 159.92C92.9751 160.373 93.9618 160.8 95.0284 161.2C96.1218 161.573 97.2151 162 98.3084 162.48C99.4018 162.96 100.402 163.507 101.308 164.12C102.215 164.733 102.948 165.587 103.508 166.68C104.068 167.747 104.348 169.12 104.348 170.8C104.348 172.453 103.882 173.867 102.948 175.04C102.015 176.213 100.882 177.013 99.5484 177.44C98.2418 177.84 96.7084 178.04 94.9484 178.04C91.6684 178.04 88.8684 177.227 86.5484 175.6L86.7484 175.28C87.6284 175.973 88.7618 176.547 90.1484 177C91.5618 177.427 93.0018 177.64 94.4684 177.64C96.6284 177.64 98.4684 177.147 99.9884 176.16C101.535 175.147 102.308 173.667 102.308 171.72C102.308 169.587 101.295 167.92 99.2684 166.72C98.3618 166.187 97.3618 165.693 96.2684 165.24C95.2018 164.787 94.1218 164.32 93.0284 163.84C91.9351 163.333 90.9351 162.773 90.0284 162.16C88.0018 160.827 86.9884 158.933 86.9884 156.48C86.9884 154.533 87.6418 152.96 88.9484 151.76C90.2551 150.533 92.2151 149.92 94.8284 149.92C97.4684 149.92 100.148 150.373 102.868 151.28L102.708 151.68ZM107.734 164.68C107.734 159.827 108.908 156.147 111.254 153.64C113.628 151.107 116.668 149.84 120.374 149.84C124.081 149.84 127.028 150.933 129.214 153.12C131.428 155.307 132.534 158.8 132.534 163.6C132.534 168.4 131.361 172.027 129.014 174.48C126.668 176.933 123.534 178.16 119.614 178.16C116.228 178.16 113.454 177.187 111.294 175.24C110.174 174.227 109.294 172.827 108.654 171.04C108.041 169.227 107.734 167.107 107.734 164.68ZM120.254 150.24C117.561 150.24 115.348 151.44 113.614 153.84C111.908 156.24 111.054 159.76 111.054 164.4C111.054 169.04 111.868 172.427 113.494 174.56C115.121 176.693 117.281 177.76 119.974 177.76C122.694 177.76 124.908 176.56 126.614 174.16C128.348 171.733 129.214 168.227 129.214 163.64C129.214 159.027 128.388 155.64 126.734 153.48C125.108 151.32 122.948 150.24 120.254 150.24ZM137.253 178H136.733V150H138.093L154.733 175.88V150H155.253V178H152.333L137.253 154.8V178ZM176.564 150V150.4H163.964V162.4H175.644V162.8H163.964V177.6H177.444V178H160.644V150H176.564ZM196.859 178H181.659V150H184.979V177.6H196.859V178ZM216.078 178H200.878V150H204.198V177.6H216.078V178ZM236.017 150V150.4H223.417V162.4H235.097V162.8H223.417V177.6H236.897V178H220.097V150H236.017Z" fill="#2EB2DB"/>
<mask id="path-13-inside-5_1035_453" fill="white">
<path d="M375 188H0V235H375V188Z"/>
</mask>
<path d="M375 189H0V187H375V189Z" fill="#2EB2DB" mask="url(#path-13-inside-5_1035_453)"/>
<path d="M70.72 197V197.4H58.12V209.4H69.8V209.8H58.12V224.6H71.6V225H54.8V197H70.72ZM84.4556 225H81.1356V197.4H74.2156V197H91.4156V197.4H84.4556V225ZM106.258 225H105.778L117.738 197L118.178 196.8L128.258 225H124.858L121.738 216.2H110.058L106.258 225ZM116.498 201.32L110.218 215.8H121.618L116.498 201.32ZM151.501 197H152.021V213C152.021 217.187 151.194 220.267 149.541 222.24C147.888 224.187 145.728 225.16 143.061 225.16C141.381 225.16 139.954 225.013 138.781 224.72C137.608 224.4 136.501 223.827 135.461 223C133.328 221.347 132.261 218.013 132.261 213V197H135.581V212.96C135.581 217.813 136.314 221.053 137.781 222.68C138.528 223.48 139.301 224.027 140.101 224.32C140.928 224.613 141.914 224.76 143.061 224.76C145.621 224.76 147.661 223.827 149.181 221.96C150.728 220.067 151.501 217.067 151.501 212.96V197ZM165.667 225H162.347V197.4H155.427V197H172.627V197.4H165.667V225ZM179.156 225H175.836V197H179.156V209.88H192.156V197H195.476V225H192.156V210.28H179.156V225ZM216.189 197V197.4H203.589V209.4H215.269V209.8H203.589V224.6H217.069V225H200.269V197H216.189ZM221.604 225H221.084V197H222.444L239.084 222.88V197H239.604V225H236.684L221.604 201.8V225ZM253.635 225H250.315V197.4H243.395V197H260.595V197.4H253.635V225ZM264.605 197.4V197H271.725V197.4H269.765V224.6H271.725V225H264.605V224.6H266.445V197.4H264.605ZM275.758 211.08C275.758 206.733 276.931 203.28 279.278 200.72C281.624 198.133 284.584 196.84 288.158 196.84C291.838 196.84 294.771 197.8 296.958 199.72C299.358 201.88 300.558 205.667 300.558 211.08C300.558 214.973 299.598 218.147 297.678 220.6C295.784 223.053 293.304 224.52 290.238 225C291.918 225.373 293.944 226.493 296.318 228.36C297.224 229.08 298.211 229.8 299.278 230.52C301.678 232.12 304.598 232.92 308.038 232.92V233.32C303.184 233.32 299.411 232.787 296.718 231.72C294.451 230.787 292.811 229.667 291.798 228.36C291.344 227.773 290.931 227.24 290.558 226.76C290.211 226.307 289.851 225.92 289.478 225.6C289.104 225.307 288.664 225.16 288.158 225.16C286.291 225.16 284.651 224.947 283.238 224.52C281.824 224.093 280.531 223.373 279.358 222.36C276.958 220.253 275.758 216.493 275.758 211.08ZM279.078 211C279.078 220.173 282.104 224.76 288.158 224.76C290.771 224.76 292.931 223.533 294.638 221.08C296.371 218.627 297.238 215.267 297.238 211C297.238 201.827 294.211 197.24 288.158 197.24C285.544 197.24 283.371 198.467 281.638 200.92C279.931 203.373 279.078 206.733 279.078 211ZM324.196 197H324.716V213C324.716 217.187 323.89 220.267 322.236 222.24C320.583 224.187 318.423 225.16 315.756 225.16C314.076 225.16 312.65 225.013 311.476 224.72C310.303 224.4 309.196 223.827 308.156 223C306.023 221.347 304.956 218.013 304.956 213V197H308.276V212.96C308.276 217.813 309.01 221.053 310.476 222.68C311.223 223.48 311.996 224.027 312.796 224.32C313.623 224.613 314.61 224.76 315.756 224.76C318.316 224.76 320.356 223.827 321.876 221.96C323.423 220.067 324.196 217.067 324.196 212.96V197ZM345.642 197V197.4H333.042V209.4H344.722V209.8H333.042V224.6H346.522V225H329.722V197H345.642Z" fill="#2EB2DB"/>
<mask id="path-16-inside-6_1035_453" fill="white">
<path d="M375 235H0V282H375V235Z"/>
</mask>
<path d="M375 236H0V234H375V236Z" fill="#2EB2DB" mask="url(#path-16-inside-6_1035_453)"/>
<path d="M206 244.04C207.173 243.987 208.32 243.96 209.44 243.96C210.587 243.96 211.787 244.08 213.04 244.32C214.32 244.56 215.573 245.013 216.8 245.68C218.053 246.32 219.107 247.16 219.96 248.2C220.84 249.213 221.547 250.56 222.08 252.24C222.613 253.92 222.88 255.96 222.88 258.36C222.88 260.76 222.48 262.92 221.68 264.84C220.907 266.733 219.84 268.187 218.48 269.2C215.84 271.173 212.653 272.16 208.92 272.16C207.613 272.16 206.24 272.107 204.8 272H202.8V244.04H206ZM206.12 271.68C206.68 271.733 207.387 271.76 208.24 271.76C209.093 271.76 209.733 271.747 210.16 271.72C210.587 271.693 211.173 271.587 211.92 271.4C212.667 271.187 213.36 270.907 214 270.56C214.64 270.213 215.307 269.707 216 269.04C216.72 268.347 217.333 267.533 217.84 266.6C218.987 264.413 219.56 261.56 219.56 258.04C219.56 255.533 219.253 253.373 218.64 251.56C218.027 249.72 217.32 248.36 216.52 247.48C215.747 246.6 214.8 245.907 213.68 245.4C212.56 244.867 211.667 244.56 211 244.48C210.333 244.4 209.56 244.36 208.68 244.36C207.8 244.36 206.947 244.4 206.12 244.48V271.68ZM224.961 272H224.481L236.441 244L236.881 243.8L246.961 272H243.561L240.441 263.2H228.761L224.961 272ZM235.201 248.32L228.921 262.8H240.321L235.201 248.32ZM250.893 272H250.373V244H251.733L268.373 269.88V244H268.893V272H265.973L250.893 248.8V272ZM289.044 245.68C286.618 244.747 284.324 244.28 282.164 244.28C280.031 244.28 278.364 244.733 277.164 245.64C275.964 246.547 275.364 247.8 275.364 249.4C275.364 251.347 276.378 252.853 278.404 253.92C279.311 254.373 280.298 254.8 281.364 255.2C282.458 255.573 283.551 256 284.644 256.48C285.738 256.96 286.738 257.507 287.644 258.12C288.551 258.733 289.284 259.587 289.844 260.68C290.404 261.747 290.684 263.12 290.684 264.8C290.684 266.453 290.218 267.867 289.284 269.04C288.351 270.213 287.218 271.013 285.884 271.44C284.578 271.84 283.044 272.04 281.284 272.04C278.004 272.04 275.204 271.227 272.884 269.6L273.084 269.28C273.964 269.973 275.098 270.547 276.484 271C277.898 271.427 279.338 271.64 280.804 271.64C282.964 271.64 284.804 271.147 286.324 270.16C287.871 269.147 288.644 267.667 288.644 265.72C288.644 263.587 287.631 261.92 285.604 260.72C284.698 260.187 283.698 259.693 282.604 259.24C281.538 258.787 280.458 258.32 279.364 257.84C278.271 257.333 277.271 256.773 276.364 256.16C274.338 254.827 273.324 252.933 273.324 250.48C273.324 248.533 273.978 246.96 275.284 245.76C276.591 244.533 278.551 243.92 281.164 243.92C283.804 243.92 286.484 244.373 289.204 245.28L289.044 245.68Z" fill="#2EB2DB"/>
<mask id="path-19-inside-7_1035_453" fill="white">
<path d="M375 282H0V329H375V282Z"/>
</mask>
<path d="M375 283H0V281H375V283ZM0 328H375V330H0V328Z" fill="#2EB2DB" mask="url(#path-19-inside-7_1035_453)"/>
<path d="M35.12 319H34.6L38.08 291H39.4L47.8 316.88L56.16 291H57.48L60.96 319H57.64L54.88 296.6L47.64 319H45.12L37.8 296.88L35.12 319ZM64.9766 305.68C64.9766 300.827 66.1499 297.147 68.4966 294.64C70.8699 292.107 73.9099 290.84 77.6166 290.84C81.3232 290.84 84.2699 291.933 86.4566 294.12C88.6699 296.307 89.7766 299.8 89.7766 304.6C89.7766 309.4 88.6032 313.027 86.2566 315.48C83.9099 317.933 80.7766 319.16 76.8566 319.16C73.4699 319.16 70.6966 318.187 68.5366 316.24C67.4166 315.227 66.5366 313.827 65.8966 312.04C65.2832 310.227 64.9766 308.107 64.9766 305.68ZM77.4966 291.24C74.8032 291.24 72.5899 292.44 70.8566 294.84C69.1499 297.24 68.2966 300.76 68.2966 305.4C68.2966 310.04 69.1099 313.427 70.7366 315.56C72.3632 317.693 74.5232 318.76 77.2166 318.76C79.9366 318.76 82.1499 317.56 83.8566 315.16C85.5899 312.733 86.4566 309.227 86.4566 304.64C86.4566 300.027 85.6299 296.64 83.9766 294.48C82.3499 292.32 80.1899 291.24 77.4966 291.24ZM94.495 319H93.975V291H95.335L111.975 316.88V291H112.495V319H109.575L94.495 295.8V319ZM138.479 319H135.159V291.4H128.239V291H145.439V291.4H138.479V319ZM149.448 291.32C152.542 291.107 155.275 291 157.648 291C164.235 291 167.528 293.2 167.528 297.6C167.528 299.467 167.075 301.133 166.168 302.6C165.262 304.067 163.702 305.04 161.488 305.52L169.488 319H165.768L157.928 305.76H152.768V319H149.448V291.32ZM157.648 291.4C156.102 291.4 154.475 291.493 152.768 291.68V305.36H158.688C162.448 305.2 164.328 302.64 164.328 297.68C164.328 295.653 163.768 294.107 162.648 293.04C161.528 291.947 159.862 291.4 157.648 291.4ZM172.352 319H171.872L183.832 291L184.272 290.8L194.352 319H190.952L187.832 310.2H176.152L172.352 319ZM182.592 295.32L176.312 309.8H187.712L182.592 295.32ZM213.601 291C214.108 291.507 214.361 292.16 214.361 292.96C214.361 293.627 214.214 294.307 213.921 295L203.681 319L203.241 319.2L193.161 291H196.561L204.921 314.68L213.441 295C213.734 294.333 213.881 293.64 213.881 292.92C213.881 292.2 213.681 291.64 213.281 291.24L213.601 291ZM213.641 319H213.161L225.121 291L225.561 290.8L235.641 319H232.241L229.121 310.2H217.441L213.641 319ZM223.881 295.32L217.601 309.8H229.001L223.881 295.32ZM239.644 291.4V291H246.764V291.4H244.804V318.6H246.764V319H239.644V318.6H241.484V291.4H239.644ZM267.578 319H252.378V291H255.698V318.6H267.578V319Z" fill="#2EB2DB"/>
<line x1="60.5" y1="99" x2="60.5" y2="138" stroke="#2EB2DB"/>
<line x1="40.1641" y1="117.911" x2="79.8362" y2="117.911" stroke="#2EB2DB"/>
<line y1="-0.5" x2="39.5365" y2="-0.5" transform="matrix(0.711523 0.702662 -0.711523 0.702662 45.9346 104.521)" stroke="#2EB2DB"/>
<line y1="-0.5" x2="39.5365" y2="-0.5" transform="matrix(0.711523 -0.702662 0.711523 0.702662 45.9346 132.301)" stroke="#2EB2DB"/>
</svg>
