<svg width="1421" height="149" viewBox="0 0 1421 149" fill="none" xmlns="http://www.w3.org/2000/svg">
<path d="M69.8 147.8C44.8667 147.8 26.4 140.733 14.4 126.6C10.1333 121.533 6.66667 114.8 4 106.4C1.33333 98 1.49012e-07 87.8 1.49012e-07 75.8C1.49012e-07 63.8 1.93333 53.0667 5.8 43.6C9.8 34 15.2 26.6 22 21.4C35.2 11.6667 51.1333 6.79999 69.8 6.79999C75.1333 6.79999 80.3333 7.26666 85.4 8.2C90.4667 9 94.2667 9.86666 96.8 10.8L100.4 12.2L99.8 14.2C90.7333 10.6 80.7333 8.79999 69.8 8.79999C55.6667 8.79999 43.8667 13.4 34.4 22.6C27.2 29.4 22.1333 39.4 19.2 52.6C17.4667 60.0667 16.6 69.2 16.6 80C16.6 90.8 18.1333 100.8 21.2 110C24.2667 119.067 27.7333 125.8 31.6 130.2C35.6 134.6 40.4 138.133 46 140.8C51.6 143.333 56.0667 144.8 59.4 145.2C62.7333 145.6 66.7333 145.8 71.4 145.8C76.2 145.8 81.6 145.333 87.6 144.4C93.6 143.467 98.1333 142.6 101.2 141.8L105.8 140.4L106.4 142.4C96.2667 146 84.0667 147.8 69.8 147.8ZM145.176 129.422C138.73 123.107 133.587 115.49 129.746 106.57C125.97 97.5859 124.082 87.8203 124.082 77.2734C124.082 66.6615 125.872 57.1562 129.453 48.7578C133.099 40.2943 138.112 32.9701 144.492 26.7852C158.164 13.6341 175.319 7.05859 195.957 7.05859C216.465 7.05859 233.262 13.5365 246.348 26.4922C259.629 39.6432 266.27 56.7005 266.27 77.6641C266.27 98.5625 259.466 115.75 245.859 129.227C237.331 137.56 226.849 143.322 214.414 146.512C208.229 148.074 201.035 148.855 192.832 148.855C184.694 148.855 176.328 147.195 167.734 143.875C159.141 140.49 151.621 135.672 145.176 129.422ZM195.859 14.1875C192.279 14.1875 188.926 14.4479 185.801 14.9688V140.945C188.796 141.466 192.148 141.727 195.859 141.727C213.242 141.727 227.891 135.932 239.805 124.344C252.24 112.299 258.457 96.7396 258.457 77.6641C258.457 59.5 252.63 44.3958 240.977 32.3516C229.193 20.2422 214.154 14.1875 195.859 14.1875ZM284.914 147V-2.86102e-06H305.114L325.114 76.6L326.914 83.4H328.114V-2.86102e-06H347.914V147H329.714L307.714 70.4L305.914 63.6H304.714V147H284.914ZM413.02 147H396.42V8.99999H361.82V6.99999H447.82V8.99999H413.02V147ZM446.252 147H443.852L503.652 6.99999L505.852 5.99999L556.252 147H539.252L523.652 103H465.252L446.252 147ZM497.452 28.6L466.052 101H523.052L497.452 28.6ZM638.159 147.8C613.226 147.8 594.759 140.733 582.759 126.6C578.493 121.533 575.026 114.8 572.359 106.4C569.693 98 568.359 87.8 568.359 75.8C568.359 63.8 570.293 53.0667 574.159 43.6C578.159 34 583.559 26.6 590.359 21.4C603.559 11.6667 619.493 6.79999 638.159 6.79999C643.493 6.79999 648.693 7.26666 653.759 8.2C658.826 9 662.626 9.86666 665.159 10.8L668.759 12.2L668.159 14.2C659.093 10.6 649.093 8.79999 638.159 8.79999C624.026 8.79999 612.226 13.4 602.759 22.6C595.559 29.4 590.493 39.4 587.559 52.6C585.826 60.0667 584.959 69.2 584.959 80C584.959 90.8 586.493 100.8 589.559 110C592.626 119.067 596.093 125.8 599.959 130.2C603.959 134.6 608.759 138.133 614.359 140.8C619.959 143.333 624.426 144.8 627.759 145.2C631.093 145.6 635.093 145.8 639.759 145.8C644.559 145.8 649.959 145.333 655.959 144.4C661.959 143.467 666.493 142.6 669.559 141.8L674.159 140.4L674.759 142.4C664.626 146 652.426 147.8 638.159 147.8ZM704.197 147V22.2H683.797V-2.86102e-06H746.197V22.2H725.797V147H704.197ZM841.803 6.99999V8.99999H778.803V69H837.203V71H778.803V145H846.203V147H762.203V6.99999H841.803ZM958.75 138.602C962.135 138.602 963.828 139.904 963.828 142.508C963.828 143.68 963.112 144.721 961.68 145.633C960.247 146.544 957.708 147 954.062 147H858.262L909.238 15.8477H884.336C879.388 15.8477 875.905 16.0755 873.887 16.5312C871.348 17.0521 869.557 17.3125 868.516 17.3125C865.13 17.3125 863.438 16.0104 863.438 13.4062C863.438 10.3464 866.628 8.81641 873.008 8.81641H960.215L910.508 139.871H943.027C947.91 139.871 951.328 139.676 953.281 139.285C955.56 138.829 957.383 138.602 958.75 138.602ZM977.911 88.4H1038.31V90H977.911V88.4ZM1064.39 147H1061.79L1079.19 6.99999H1085.79L1127.79 136.4L1169.59 6.99999H1176.19L1193.59 147H1176.99L1163.19 35L1126.99 147H1114.39L1077.79 36.4L1064.39 147ZM1239.32 129.422C1232.87 123.107 1227.73 115.49 1223.89 106.57C1220.11 97.5859 1218.22 87.8203 1218.22 77.2734C1218.22 66.6615 1220.01 57.1562 1223.59 48.7578C1227.24 40.2943 1232.25 32.9701 1238.63 26.7852C1252.3 13.6341 1269.46 7.05859 1290.1 7.05859C1310.61 7.05859 1327.4 13.5365 1340.49 26.4922C1353.77 39.6432 1360.41 56.7005 1360.41 77.6641C1360.41 98.5625 1353.61 115.75 1340 129.227C1331.47 137.56 1320.99 143.322 1308.55 146.512C1302.37 148.074 1295.18 148.855 1286.97 148.855C1278.83 148.855 1270.47 147.195 1261.88 143.875C1253.28 140.49 1245.76 135.672 1239.32 129.422ZM1290 14.1875C1286.42 14.1875 1283.07 14.4479 1279.94 14.9688V140.945C1282.94 141.466 1286.29 141.727 1290 141.727C1307.38 141.727 1322.03 135.932 1333.95 124.344C1346.38 112.299 1352.6 96.7396 1352.6 77.6641C1352.6 59.5 1346.77 44.3958 1335.12 32.3516C1323.33 20.2422 1308.29 14.1875 1290 14.1875ZM1385.05 8.99999V6.99999H1420.65V8.99999H1410.85V145H1420.65V147H1385.05V145H1394.25V8.99999H1385.05Z" fill="#2EB2DB"/>
</svg>
