<svg width="748" height="149" viewBox="0 0 748 149" fill="none" xmlns="http://www.w3.org/2000/svg">
<path d="M0.5 147L22.7 -2.86102e-06H49.1L71.3 147H50.3L46.3 117H25.5L21.5 147H0.5ZM28.5 94.2H43.3L37.1 44.8L36.5 37H35.3L34.7 44.8L28.5 94.2ZM154.534 147.8C129.601 147.8 111.134 140.733 99.1344 126.6C94.8677 121.533 91.401 114.8 88.7344 106.4C86.0677 98 84.7344 87.8 84.7344 75.8C84.7344 63.8 86.6677 53.0667 90.5344 43.6C94.5344 34 99.9344 26.6 106.734 21.4C119.934 11.6667 135.868 6.79999 154.534 6.79999C159.868 6.79999 165.068 7.26666 170.134 8.2C175.201 9 179.001 9.86666 181.534 10.8L185.134 12.2L184.534 14.2C175.468 10.6 165.468 8.79999 154.534 8.79999C140.401 8.79999 128.601 13.4 119.134 22.6C111.934 29.4 106.868 39.4 103.934 52.6C102.201 60.0667 101.334 69.2 101.334 80C101.334 90.8 102.868 100.8 105.934 110C109.001 119.067 112.468 125.8 116.334 130.2C120.334 134.6 125.134 138.133 130.734 140.8C136.334 143.333 140.801 144.8 144.134 145.2C147.468 145.6 151.468 145.8 156.134 145.8C160.934 145.8 166.334 145.333 172.334 144.4C178.334 143.467 182.868 142.6 185.934 141.8L190.534 140.4L191.134 142.4C181.001 146 168.801 147.8 154.534 147.8ZM327.469 123.855C330.138 123.855 331.473 125.353 331.473 128.348C331.473 130.822 329.585 133.296 325.809 135.77C318.777 140.392 312.853 143.419 308.035 144.852C298.986 147.521 289.48 148.855 279.52 148.855C269.559 148.855 259.956 147.098 250.711 143.582C241.531 140.001 233.686 135.021 227.176 128.641C213.569 115.229 206.766 97.9115 206.766 76.6875C206.766 66.4661 208.686 57.0911 212.527 48.5625C216.368 39.9688 221.674 32.612 228.445 26.4922C242.768 13.5365 260.77 7.05859 282.449 7.05859C294.624 7.05859 305.333 9.14193 314.578 13.3086C324.409 17.6706 329.324 21.3815 329.324 24.4414C329.324 25.6784 328.901 26.7526 328.055 27.6641C327.273 28.5755 326.362 29.0312 325.32 29.0312C323.237 29.0312 321.349 28.1198 319.656 26.2969C317.964 24.4089 315.652 22.7161 312.723 21.2188C309.858 19.7214 306.701 18.4193 303.25 17.3125C296.219 15.1641 289.806 14.0898 284.012 14.0898C278.283 14.0898 273.53 14.4805 269.754 15.2617V140.457C274.311 141.238 278.348 141.629 281.863 141.629C285.379 141.629 288.96 141.401 292.605 140.945C296.251 140.49 299.832 139.741 303.348 138.699C311.225 136.355 317.15 132.905 321.121 128.348C322.553 126.655 323.693 125.483 324.539 124.832C325.385 124.181 326.362 123.855 327.469 123.855ZM477.469 12.918L476.883 25.0273V83.4258C476.883 102.697 471.349 118.354 460.281 130.398C448.953 142.703 433.914 148.855 415.164 148.855C395.112 148.855 379.487 142.573 368.289 130.008C357.872 118.484 352.664 103.706 352.664 85.6719V8.81641H402.566V140.555C407.579 141.271 413.081 141.629 419.07 141.629C425.125 141.629 431.245 140.424 437.43 138.016C443.68 135.607 449.148 131.831 453.836 126.688C463.992 115.62 469.135 99.4414 469.266 78.1523V25.2227C469.266 23.2695 469.103 20.9583 468.777 18.2891C468.517 15.6198 468.387 13.7969 468.387 12.8203C468.387 9.4349 469.982 7.74219 473.172 7.74219C476.036 7.74219 477.469 9.46745 477.469 12.918ZM585.327 6.99999V8.99999H522.327V69H580.727V71H522.327V145H589.727V147H505.727V6.99999H585.327ZM610.805 8.99999V6.99999H646.405V8.99999H636.605V145H646.405V147H610.805V145H620.005V8.99999H610.805ZM750.477 147H674.477V6.99999H691.077V145H750.477V147Z" fill="#2EB2DB"/>
</svg>
