<svg width="901" height="149" viewBox="0 0 901 149" fill="none" xmlns="http://www.w3.org/2000/svg">
<path d="M41.6992 129.617C29.7852 129.617 21.6471 129.52 17.2852 129.324L14.4531 136.062C13.6068 137.951 12.8255 139.936 12.1094 142.02C10.612 146.056 8.52865 148.074 5.85938 148.074C4.6224 148.074 3.61328 147.684 2.83203 146.902C2.05078 146.121 1.66016 145.307 1.66016 144.461C1.66016 143.029 2.27865 141.434 3.51562 139.676C5.46875 136.941 7.38932 133.361 9.27734 128.934C3.67839 128.413 0.878906 126.785 0.878906 124.051C0.878906 121.316 2.47396 119.949 5.66406 119.949C7.61719 119.949 9.89583 120.275 12.5 120.926L61.2305 2.56641L128.027 147H77.1484L69.043 129.617H41.6992ZM20.4102 121.707C26.6602 122.228 32.2591 122.488 37.207 122.488H65.8203L41.4062 69.8516L20.4102 121.707ZM190.953 8.59999C206.42 7.53332 220.02 6.99999 231.753 6.99999C264.82 6.99999 281.353 18.6667 281.353 42C281.353 52.8 278.553 62.2667 272.953 70.4C270.02 74.8 265.486 78.3333 259.353 81C253.22 83.5333 245.82 84.8 237.153 84.8H207.553V147H190.953V8.59999ZM231.953 8.99999C224.22 8.99999 216.086 9.46666 207.553 10.4V82.8H237.153C255.953 82 265.353 68.5333 265.353 42.4C265.353 31.7333 262.553 23.5333 256.953 17.8C251.353 11.9333 243.02 8.99999 231.953 8.99999ZM301.5 8.59999C316.967 7.53332 330.633 6.99999 342.5 6.99999C375.433 6.99999 391.9 18 391.9 40C391.9 49.3333 389.633 57.6667 385.1 65C380.567 72.3333 372.767 77.2 361.7 79.6L401.7 147H383.1L343.9 80.8H318.1V147H301.5V8.59999ZM342.5 8.99999C334.767 8.99999 326.633 9.46666 318.1 10.4V78.8H347.7C366.5 78 375.9 65.2 375.9 40.4C375.9 30.2667 373.1 22.5333 367.5 17.2C361.9 11.7333 353.567 8.99999 342.5 8.99999ZM439.355 129.422C432.91 123.107 427.767 115.49 423.926 106.57C420.15 97.5859 418.262 87.8203 418.262 77.2734C418.262 66.6615 420.052 57.1562 423.633 48.7578C427.279 40.2943 432.292 32.9701 438.672 26.7852C452.344 13.6341 469.499 7.05859 490.137 7.05859C510.645 7.05859 527.441 13.5365 540.527 26.4922C553.809 39.6432 560.449 56.7005 560.449 77.6641C560.449 98.5625 553.646 115.75 540.039 129.227C531.51 137.56 521.029 143.322 508.594 146.512C502.409 148.074 495.215 148.855 487.012 148.855C478.874 148.855 470.508 147.195 461.914 143.875C453.32 140.49 445.801 135.672 439.355 129.422ZM490.039 14.1875C486.458 14.1875 483.105 14.4479 479.98 14.9688V140.945C482.975 141.466 486.328 141.727 490.039 141.727C507.422 141.727 522.07 135.932 533.984 124.344C546.419 112.299 552.637 96.7396 552.637 77.6641C552.637 59.5 546.81 44.3958 535.156 32.3516C523.372 20.2422 508.333 14.1875 490.039 14.1875ZM579.094 147V-2.86102e-06H600.694C608.894 -2.86102e-06 615.727 1.8 621.194 5.4C626.727 8.99999 630.86 14.1 633.594 20.7C636.327 27.3 637.694 35.0667 637.694 44C637.694 52.9333 636.26 60.6333 633.394 67.1C630.527 73.5667 626.327 78.6333 620.794 82.3C615.327 85.9 608.627 87.8667 600.694 88.2V147H579.094ZM600.694 66.2C604.494 66.2 607.494 65.4667 609.694 64C611.894 62.4667 613.46 60.0667 614.394 56.8C615.394 53.5333 615.894 49.3333 615.894 44.2C615.894 39 615.394 34.7667 614.394 31.5C613.46 28.2333 611.86 25.8333 609.594 24.3C607.394 22.7667 604.427 22 600.694 22V66.2ZM673.145 129.422C666.699 123.107 661.556 115.49 657.715 106.57C653.939 97.5859 652.051 87.8203 652.051 77.2734C652.051 66.6615 653.841 57.1562 657.422 48.7578C661.068 40.2943 666.081 32.9701 672.461 26.7852C686.133 13.6341 703.288 7.05859 723.926 7.05859C744.434 7.05859 761.23 13.5365 774.316 26.4922C787.598 39.6432 794.238 56.7005 794.238 77.6641C794.238 98.5625 787.435 115.75 773.828 129.227C765.299 137.56 754.818 143.322 742.383 146.512C736.198 148.074 729.004 148.855 720.801 148.855C712.663 148.855 704.297 147.195 695.703 143.875C687.109 140.49 679.59 135.672 673.145 129.422ZM723.828 14.1875C720.247 14.1875 716.895 14.4479 713.77 14.9688V140.945C716.764 141.466 720.117 141.727 723.828 141.727C741.211 141.727 755.859 135.932 767.773 124.344C780.208 112.299 786.426 96.7396 786.426 77.6641C786.426 59.5 780.599 44.3958 768.945 32.3516C757.161 20.2422 742.122 14.1875 723.828 14.1875ZM892.683 15.4C880.549 10.7333 869.083 8.4 858.283 8.4C847.616 8.4 839.283 10.6667 833.283 15.2C827.283 19.7333 824.283 26 824.283 34C824.283 43.7333 829.349 51.2667 839.483 56.6C844.016 58.8667 848.949 61 854.283 63C859.749 64.8667 865.216 67 870.683 69.4C876.149 71.8 881.149 74.5333 885.683 77.6C890.216 80.6667 893.883 84.9333 896.683 90.4C899.483 95.7333 900.883 102.6 900.883 111C900.883 119.267 898.549 126.333 893.883 132.2C889.216 138.067 883.549 142.067 876.883 144.2C870.349 146.2 862.683 147.2 853.883 147.2C837.483 147.2 823.483 143.133 811.883 135L812.883 133.4C817.283 136.867 822.949 139.733 829.883 142C836.949 144.133 844.149 145.2 851.483 145.2C862.283 145.2 871.483 142.733 879.083 137.8C886.816 132.733 890.683 125.333 890.683 115.6C890.683 104.933 885.616 96.6 875.483 90.6C870.949 87.9333 865.949 85.4667 860.483 83.2C855.149 80.9333 849.749 78.6 844.283 76.2C838.816 73.6667 833.816 70.8667 829.283 67.8C819.149 61.1333 814.083 51.6667 814.083 39.4C814.083 29.6667 817.349 21.8 823.883 15.8C830.416 9.66666 840.216 6.6 853.283 6.6C866.483 6.6 879.883 8.86666 893.483 13.4L892.683 15.4Z" fill="#2EB2DB"/>
</svg>
