<svg width="769" height="151" viewBox="0 0 769 151" fill="none" xmlns="http://www.w3.org/2000/svg">
<path d="M121.297 125.855C123.966 125.855 125.301 127.353 125.301 130.348C125.301 132.822 123.413 135.296 119.637 137.77C112.605 142.392 106.681 145.419 101.863 146.852C92.8138 149.521 83.3086 150.855 73.3477 150.855C63.3867 150.855 53.7839 149.098 44.5391 145.582C35.3594 142.001 27.5143 137.021 21.0039 130.641C7.39714 117.229 0.59375 99.9115 0.59375 78.6875C0.59375 68.4661 2.51432 59.0911 6.35547 50.5625C10.1966 41.9688 15.5026 34.612 22.2734 28.4922C36.5964 15.5365 54.5977 9.05859 76.2773 9.05859C88.4518 9.05859 99.1615 11.1419 108.406 15.3086C118.237 19.6706 123.152 23.3815 123.152 26.4414C123.152 27.6784 122.729 28.7526 121.883 29.6641C121.102 30.5755 120.19 31.0312 119.148 31.0312C117.065 31.0312 115.177 30.1198 113.484 28.2969C111.792 26.4089 109.48 24.7161 106.551 23.2188C103.686 21.7214 100.529 20.4193 97.0781 19.3125C90.0469 17.1641 83.6341 16.0898 77.8398 16.0898C72.1107 16.0898 67.3581 16.4805 63.582 17.2617V142.457C68.1393 143.238 72.1758 143.629 75.6914 143.629C79.207 143.629 82.7878 143.401 86.4336 142.945C90.0794 142.49 93.6602 141.741 97.1758 140.699C105.053 138.355 110.978 134.905 114.949 130.348C116.382 128.655 117.521 127.483 118.367 126.832C119.214 126.181 120.19 125.855 121.297 125.855ZM163.973 131.422C157.527 125.107 152.384 117.49 148.543 108.57C144.767 99.5859 142.879 89.8203 142.879 79.2734C142.879 68.6615 144.669 59.1562 148.25 50.7578C151.896 42.2943 156.909 34.9701 163.289 28.7852C176.961 15.6341 194.116 9.05859 214.754 9.05859C235.262 9.05859 252.059 15.5365 265.145 28.4922C278.426 41.6432 285.066 58.7005 285.066 79.6641C285.066 100.562 278.263 117.75 264.656 131.227C256.128 139.56 245.646 145.322 233.211 148.512C227.026 150.074 219.832 150.855 211.629 150.855C203.491 150.855 195.125 149.195 186.531 145.875C177.938 142.49 170.418 137.672 163.973 131.422ZM214.656 16.1875C211.076 16.1875 207.723 16.4479 204.598 16.9688V142.945C207.592 143.466 210.945 143.727 214.656 143.727C232.039 143.727 246.688 137.932 258.602 126.344C271.036 114.299 277.254 98.7396 277.254 79.6641C277.254 61.5 271.427 46.3958 259.773 34.3516C247.99 22.2422 232.951 16.1875 214.656 16.1875ZM311.311 149H308.711V8.99999H315.511L398.711 138.4V8.99999H401.311V149H386.711L311.311 33V149ZM436.666 149V24.2H416.266V2H478.666V24.2H458.266V149H436.666ZM489.072 149H486.672L546.472 8.99999L548.672 7.99999L599.072 149H582.072L566.472 105H508.072L489.072 149ZM540.272 30.6L508.872 103H565.872L540.272 30.6ZM640.886 150.6C634.753 150.6 629.519 149.233 625.186 146.5C620.919 143.7 617.653 139.9 615.386 135.1C613.186 130.3 612.086 124.867 612.086 118.8V32.2C612.086 26.2 613.219 20.8 615.486 16C617.819 11.2 621.153 7.39999 625.486 4.59999C629.819 1.79999 634.953 0.399994 640.886 0.399994C645.353 0.399994 649.353 1.23333 652.886 2.89999C656.419 4.56666 659.419 6.86666 661.886 9.79999C664.419 12.6667 666.353 16.0333 667.686 19.9C669.019 23.7 669.686 27.8 669.686 32.2V52.4H649.486V32.2C649.486 29.1333 648.853 26.5667 647.586 24.5C646.319 22.4333 644.219 21.4 641.286 21.4C638.619 21.4 636.686 22.4667 635.486 24.6C634.286 26.7333 633.686 29.2667 633.686 32.2V118.8C633.686 121.733 634.319 124.267 635.586 126.4C636.919 128.533 638.819 129.6 641.286 129.6C644.286 129.6 646.386 128.567 647.586 126.5C648.853 124.433 649.486 121.867 649.486 118.8V98.6H669.686V118.8C669.686 124.8 668.519 130.2 666.186 135C663.853 139.8 660.519 143.6 656.186 146.4C651.919 149.2 646.819 150.6 640.886 150.6ZM733.966 149H717.366V11H682.766V8.99999H768.766V11H733.966V149Z" fill="#2EB2DB"/>
</svg>
