<?xml version="1.0" encoding="UTF-8"?>
<svg id="Calque_2" xmlns="http://www.w3.org/2000/svg" xmlns:xlink="http://www.w3.org/1999/xlink" viewBox="0 0 1920 466.5">
  <defs>
    <style>
      .cls-1 {
        stroke-miterlimit: 4;
        stroke-width: 1px;
      }

      .cls-1, .cls-2, .cls-3, .cls-4 {
        fill: none;
        stroke: #2eb2db;
      }

      .cls-5 {
        mask: url(#mask-1);
      }

      .cls-2 {
        stroke-miterlimit: 4;
        stroke-width: 1px;
      }

      .cls-6 {
        fill: #fff;
      }

      .cls-7 {
        mask: url(#mask);
      }

      .cls-8 {
        mask: url(#mask-2);
      }

      .cls-9 {
        fill: #2eb2db;
      }

      .cls-3 {
        stroke-miterlimit: 4;
        stroke-width: 1px;
      }

      .cls-10 {
        mask: url(#mask-3);
      }
    </style>
    <mask id="mask" x="0" y="0" width="1920" height="119" maskUnits="userSpaceOnUse">
      <g id="path-1-inside-1_513_1469">
        <path class="cls-6" d="M1920,1H0v118h1920V1Z"/>
      </g>
    </mask>
    <mask id="mask-1" x="0" y="115.5" width="1920" height="119" maskUnits="userSpaceOnUse">
      <g id="path-9-inside-2_513_1469">
        <path class="cls-6" d="M1920,116.5H0v118h1920v-118Z"/>
      </g>
    </mask>
    <mask id="mask-2" x="0" y="231" width="1920" height="441.5" maskUnits="userSpaceOnUse">
      <g id="path-17-inside-3_513_1469">
        <path class="cls-6" d="M1920,232H0v440.5h1920V232Z"/>
      </g>
    </mask>
    <mask id="mask-3" x="0" y="346.5" width="1920" height="120" maskUnits="userSpaceOnUse">
      <g id="path-20-inside-4_513_1469">
        <path class="cls-6" d="M1920,347.5H0v118h1920v-118Z"/>
      </g>
    </mask>
  </defs>
  <g id="Calque_1-2" data-name="Calque_1">
    <g>
      <g class="cls-7">
        <path class="cls-9" d="M1920,2H0V0h1920v2Z"/>
      </g>
      <line class="cls-4" x1="1562.27" y1="9" x2="1562.27" y2="111"/>
      <line class="cls-4" x1="1561.77" y1="59.73" x2="1616.77" y2="59.73"/>
      <line class="cls-2" x1="1562.12" y1="59.88" x2="1601.01" y2="99.4"/>
      <line class="cls-2" x1="1561.88" y1="59.81" x2="1600.77" y2="20.29"/>
      <path class="cls-9" d="M1047,24.1c2.93-.13,5.8-.2,8.6-.2s5.87.3,9,.9c3.2.6,6.33,1.73,9.4,3.4,3.13,1.6,5.77,3.7,7.9,6.3,2.2,2.53,3.97,5.9,5.3,10.1,1.33,4.2,2,9.3,2,15.3s-1,11.4-3,16.2c-1.93,4.73-4.6,8.37-8,10.9-6.6,4.93-14.57,7.4-23.9,7.4-3.27,0-6.7-.13-10.3-.4h-5V24.1h8ZM1047.3,93.2c1.4.13,3.17.2,5.3.2s3.73-.03,4.8-.1c1.07-.07,2.53-.33,4.4-.8,1.87-.53,3.6-1.23,5.2-2.1s3.27-2.13,5-3.8c1.8-1.73,3.33-3.77,4.6-6.1,2.87-5.47,4.3-12.6,4.3-21.4,0-6.27-.77-11.67-2.3-16.2-1.53-4.6-3.3-8-5.3-10.2-1.93-2.2-4.3-3.93-7.1-5.2-2.8-1.33-5.03-2.1-6.7-2.3-1.67-.2-3.6-.3-5.8-.3s-4.33.1-6.4.3v68ZM1106.51,19c1.13,0,2.06.4,2.8,1.2.8.8,1.2,1.63,1.2,2.5s-1.5,7.1-4.5,18.7h-1.3l2.1-14.3h-.3c-1.07,0-2.04-.4-2.9-1.2-.8-.8-1.2-1.73-1.2-2.8,0-1.13.4-2.1,1.2-2.9.8-.8,1.76-1.2,2.9-1.2ZM1127.18,25v-1h17.8v1h-4.9v68h4.9v1h-17.8v-1h4.6V25h-4.6ZM1159.82,94h-1.3V24h3.4l41.6,64.7V24h1.3v70h-7.3l-37.7-58v58ZM1239.9,94h-8.3V25h-17.3v-1h43v1h-17.4v69ZM1307.12,24v1h-31.5v30h29.2v1h-29.2v37h33.7v1h-42V24h39.8ZM1349.73,94.4c-12.46,0-21.7-3.53-27.7-10.6-2.13-2.53-3.86-5.9-5.2-10.1-1.33-4.2-2-9.3-2-15.3s.97-11.37,2.9-16.1c2-4.8,4.7-8.5,8.1-11.1,6.6-4.87,14.57-7.3,23.9-7.3,3,0,5.94.23,8.8.7,2.87.4,5,.83,6.4,1.3l2.1.7-.3,1c-5.2-1.8-10.86-2.7-17-2.7-7.06,0-12.96,2.3-17.7,6.9-3.6,3.4-6.13,8.4-7.6,15-.86,3.73-1.3,8.3-1.3,13.7s.77,10.4,2.3,15c1.54,4.53,3.27,7.9,5.2,10.1,2,2.2,4.4,3.97,7.2,5.3,2.8,1.27,5.04,2,6.7,2.2,1.67.2,3.64.3,5.9.3s5.44-.27,9.3-.8v-20.6h-12.1v-1h24.7v1h-4.3v19.7c-5.06,1.8-11.16,2.7-18.3,2.7ZM1381.77,24.8c7.74-.53,14.57-.8,20.5-.8,16.47,0,24.7,5.5,24.7,16.5,0,4.67-1.13,8.83-3.4,12.5-2.26,3.67-6.16,6.1-11.7,7.3l20,33.7h-9.3l-19.6-33.1h-12.9v33.1h-8.3V24.8ZM1402.27,25c-3.86,0-7.93.23-12.2.7v34.2h14.8c9.4-.4,14.1-6.8,14.1-19.2,0-5.07-1.4-8.93-4.2-11.6-2.8-2.73-6.96-4.1-12.5-4.1ZM1481.63,24v1h-31.5v30h29.2v1h-29.2v37h33.7v1h-42V24h39.8ZM1494.37,24.8c7.73-.53,14.57-.8,20.5-.8,16.47,0,24.7,5.5,24.7,16.5,0,4.67-1.13,8.83-3.4,12.5-2.27,3.67-6.17,6.1-11.7,7.3l20,33.7h-9.3l-19.6-33.1h-12.9v33.1h-8.3V24.8ZM1514.87,25c-3.87,0-7.93.23-12.2.7v34.2h14.8c9.4-.4,14.1-6.8,14.1-19.2,0-5.07-1.4-8.93-4.2-11.6-2.8-2.73-6.97-4.1-12.5-4.1Z"/>
      <path class="cls-9" d="M226.91,28.45v-1h17.8v56.8c0,5.27-1.07,8.8-3.2,10.6-2.13,1.73-5.37,2.6-9.7,2.6s-8.07-.63-11.4-1.9l.3-.8c3.2,1.27,6.5,1.9,9.9,1.9,2.27,0,3.77-.97,4.5-2.9.8-1.93,1.2-5.07,1.2-9.4V28.45h-9.4Z"/>
      <path class="cls-9" d="M264.01,22.45c1.13,0,2.07.4,2.8,1.2.8.8,1.2,1.63,1.2,2.5s-1.5,7.1-4.5,18.7h-1.3l2.1-14.3h-.3c-1.07,0-2.03-.4-2.9-1.2-.8-.8-1.2-1.73-1.2-2.8,0-1.13.4-2.1,1.2-2.9.8-.8,1.77-1.2,2.9-1.2Z"/>
      <path class="cls-9" d="M324.49,27.45v1h-31.5v30h29.2v1h-29.2v37h33.7v1h-42V27.45h39.8Z"/>
      <path class="cls-9" d="M374.13,31.65c-6.07-2.33-11.8-3.5-17.2-3.5s-9.5,1.13-12.5,3.4c-3,2.27-4.5,5.4-4.5,9.4,0,4.87,2.53,8.63,7.6,11.3,2.27,1.13,4.73,2.2,7.4,3.2,2.73.93,5.47,2,8.2,3.2,2.73,1.2,5.23,2.57,7.5,4.1,2.27,1.53,4.1,3.67,5.5,6.4,1.4,2.67,2.1,6.1,2.1,10.3s-1.17,7.67-3.5,10.6c-2.33,2.93-5.17,4.93-8.5,6-3.27,1-7.1,1.5-11.5,1.5-8.2,0-15.2-2.03-21-6.1l.5-.8c2.2,1.73,5.03,3.17,8.5,4.3,3.53,1.07,7.13,1.6,10.8,1.6,5.4,0,10-1.23,13.8-3.7,3.87-2.53,5.8-6.23,5.8-11.1,0-5.33-2.53-9.5-7.6-12.5-2.27-1.33-4.77-2.57-7.5-3.7-2.67-1.13-5.37-2.3-8.1-3.5-2.73-1.27-5.23-2.67-7.5-4.2-5.07-3.33-7.6-8.07-7.6-14.2,0-4.87,1.63-8.8,4.9-11.8,3.27-3.07,8.17-4.6,14.7-4.6s13.3,1.13,20.1,3.4l-.4,1Z"/>
      <path class="cls-9" d="M425.59,31.65c-6.07-2.33-11.8-3.5-17.2-3.5s-9.5,1.13-12.5,3.4c-3,2.27-4.5,5.4-4.5,9.4,0,4.87,2.53,8.63,7.6,11.3,2.27,1.13,4.73,2.2,7.4,3.2,2.73.93,5.47,2,8.2,3.2,2.73,1.2,5.23,2.57,7.5,4.1,2.27,1.53,4.1,3.67,5.5,6.4,1.4,2.67,2.1,6.1,2.1,10.3s-1.17,7.67-3.5,10.6c-2.33,2.93-5.17,4.93-8.5,6-3.27,1-7.1,1.5-11.5,1.5-8.2,0-15.2-2.03-21-6.1l.5-.8c2.2,1.73,5.03,3.17,8.5,4.3,3.53,1.07,7.13,1.6,10.8,1.6,5.4,0,10-1.23,13.8-3.7,3.87-2.53,5.8-6.23,5.8-11.1,0-5.33-2.53-9.5-7.6-12.5-2.27-1.33-4.77-2.57-7.5-3.7-2.67-1.13-5.37-2.3-8.1-3.5-2.73-1.27-5.23-2.67-7.5-4.2-5.07-3.33-7.6-8.07-7.6-14.2,0-4.87,1.63-8.8,4.9-11.8,3.27-3.07,8.17-4.6,14.7-4.6s13.3,1.13,20.1,3.4l-.4,1Z"/>
      <path class="cls-9" d="M437.36,97.45h-1.2l29.9-70,1.1-.5,25.2,70.5h-8.5l-7.8-22h-29.2l-9.5,22ZM462.96,38.25l-15.7,36.2h28.5l-12.8-36.2Z"/>
      <path class="cls-9" d="M502.36,28.45v-1h17.8v1h-4.9v68h4.9v1h-17.8v-1h4.6V28.45h-4.6Z"/>
      <path class="cls-9" d="M994,27.45v1h-451.5v30h29.2v1h-29.2v37h33.7v1h-42V27.45h459.8Z"/>
    </g>
    <g>
      <g class="cls-5">
        <path class="cls-9" d="M1920,117.5H0v-2h1920v2Z"/>
      </g>
      <path class="cls-9" d="M1206,140.3c7.73-.53,14.53-.8,20.4-.8,16.53,0,24.8,5.83,24.8,17.5,0,5.4-1.4,10.13-4.2,14.2-1.47,2.2-3.73,3.97-6.8,5.3-3.07,1.27-6.77,1.9-11.1,1.9h-14.8v31.1h-8.3v-69.2ZM1226.5,140.5c-3.87,0-7.93.23-12.2.7v36.2h14.8c9.4-.4,14.1-7.13,14.1-20.2,0-5.33-1.4-9.43-4.2-12.3-2.8-2.93-6.97-4.4-12.5-4.4ZM1301.07,139.5v1h-31.5v30h29.2v1h-29.2v37h33.7v1h-42v-70h39.8ZM1313.81,140.3c7.74-.53,14.57-.8,20.5-.8,16.47,0,24.7,5.5,24.7,16.5,0,4.67-1.13,8.83-3.4,12.5-2.26,3.67-6.16,6.1-11.7,7.3l20,33.7h-9.3l-19.6-33.1h-12.9v33.1h-8.3v-69.2ZM1334.31,140.5c-3.86,0-7.93.23-12.2.7v34.2h14.8c9.4-.4,14.1-6.8,14.1-19.2,0-5.07-1.4-8.93-4.2-11.6-2.8-2.73-6.96-4.1-12.5-4.1ZM1410.77,143.7c-6.07-2.33-11.8-3.5-17.2-3.5s-9.5,1.13-12.5,3.4c-3,2.27-4.5,5.4-4.5,9.4,0,4.87,2.53,8.63,7.6,11.3,2.27,1.13,4.73,2.2,7.4,3.2,2.73.93,5.47,2,8.2,3.2s5.23,2.57,7.5,4.1c2.27,1.53,4.1,3.67,5.5,6.4,1.4,2.67,2.1,6.1,2.1,10.3s-1.17,7.67-3.5,10.6-5.17,4.93-8.5,6c-3.27,1-7.1,1.5-11.5,1.5-8.2,0-15.2-2.03-21-6.1l.5-.8c2.2,1.73,5.03,3.17,8.5,4.3,3.53,1.07,7.13,1.6,10.8,1.6,5.4,0,10-1.23,13.8-3.7,3.87-2.53,5.8-6.23,5.8-11.1,0-5.33-2.53-9.5-7.6-12.5-2.27-1.33-4.77-2.57-7.5-3.7-2.67-1.13-5.37-2.3-8.1-3.5-2.73-1.27-5.23-2.67-7.5-4.2-5.07-3.33-7.6-8.07-7.6-14.2,0-4.87,1.63-8.8,4.9-11.8,3.27-3.07,8.17-4.6,14.7-4.6s13.3,1.13,20.1,3.4l-.4,1ZM1423.34,176.2c0-12.13,2.93-21.33,8.8-27.6,5.93-6.33,13.53-9.5,22.8-9.5s16.63,2.73,22.1,8.2c5.53,5.47,8.3,14.2,8.3,26.2s-2.94,21.07-8.8,27.2c-5.87,6.13-13.7,9.2-23.5,9.2-8.47,0-15.4-2.43-20.8-7.3-2.8-2.53-5-6.03-6.6-10.5-1.54-4.53-2.3-9.83-2.3-15.9ZM1454.64,140.1c-6.74,0-12.27,3-16.6,9-4.27,6-6.4,14.8-6.4,26.4s2.03,20.07,6.1,25.4c4.06,5.33,9.46,8,16.2,8s12.33-3,16.6-9c4.33-6.07,6.5-14.83,6.5-26.3s-2.07-20-6.2-25.4c-4.07-5.4-9.47-8.1-16.2-8.1ZM1497.13,209.5h-1.3v-70h3.4l41.6,64.7v-64.7h1.3v70h-7.3l-37.7-58v58ZM1595.41,139.5v1h-31.5v30h29.2v1h-29.2v37h33.7v1h-42v-70h39.8ZM1646.15,209.5h-38v-70h8.3v69h29.7v1ZM1694.2,209.5h-38v-70h8.3v69h29.7v1ZM1744.04,139.5v1h-31.5v30h29.2v1h-29.2v37h33.7v1h-42v-70h39.8Z"/>
      <line class="cls-1" x1="1015.5" y1="126" x2="1015.5" y2="225"/>
      <line class="cls-4" x1="1065.59" y1="174.77" x2="966.41" y2="174.77"/>
      <line class="cls-3" x1="1050.81" y1="139.66" x2="980.48" y2="210.18"/>
      <line class="cls-3" x1="1051.51" y1="210.18" x2="981.19" y2="139.66"/>
      <path class="cls-9" d="M307.23,140.5h1.3v40c0,10.47-2.07,18.17-6.2,23.1-4.13,4.87-9.53,7.3-16.2,7.3-4.2,0-7.77-.37-10.7-1.1-2.93-.8-5.7-2.23-8.3-4.3-5.33-4.13-8-12.47-8-25v-40h8.3v39.9c0,12.13,1.83,20.23,5.5,24.3,1.87,2,3.8,3.37,5.8,4.1,2.07.73,4.53,1.1,7.4,1.1,6.4,0,11.5-2.33,15.3-7,3.87-4.73,5.8-12.23,5.8-22.5v-39.9Z"/>
      <path class="cls-9" d="M321.85,210.5h-1.3v-70h3.4l41.6,64.7v-64.7h1.3v70h-7.3l-37.7-58v58Z"/>
      <path class="cls-9" d="M420.12,140.5v1h-31.5v30h29.2v1h-29.2v37h33.7v1h-42v-70h39.8Z"/>
      <path class="cls-9" d="M524.35,210.5h-8.3v-69h-67.3v-1h93v1h-17.4v69Z"/>
      <path class="cls-9" d="M543.81,177.2c0-12.13,2.93-21.33,8.8-27.6,5.93-6.33,13.53-9.5,22.8-9.5s16.63,2.73,22.1,8.2c5.53,5.47,8.3,14.2,8.3,26.2s-2.93,21.07-8.8,27.2c-5.87,6.13-13.7,9.2-23.5,9.2-8.47,0-15.4-2.43-20.8-7.3-2.8-2.53-5-6.03-6.6-10.5-1.53-4.53-2.3-9.83-2.3-15.9ZM575.11,141.1c-6.73,0-12.27,3-16.6,9-4.27,6-6.4,14.8-6.4,26.4s2.03,20.07,6.1,25.4c4.07,5.33,9.47,8,16.2,8s12.33-3,16.6-9c4.33-6.07,6.5-14.83,6.5-26.3s-2.07-20-6.2-25.4c-4.07-5.4-9.47-8.1-16.2-8.1Z"/>
      <path class="cls-9" d="M664.91,140.5h1.3v40c0,10.47-2.07,18.17-6.2,23.1-4.13,4.87-9.53,7.3-16.2,7.3-4.2,0-7.77-.37-10.7-1.1-2.93-.8-5.7-2.23-8.3-4.3-5.33-4.13-8-12.47-8-25v-40h8.3v39.9c0,12.13,1.83,20.23,5.5,24.3,1.87,2,3.8,3.37,5.8,4.1,2.07.73,4.53,1.1,7.4,1.1,6.4,0,11.5-2.33,15.3-7,3.87-4.73,5.8-12.23,5.8-22.5v-39.9Z"/>
      <path class="cls-9" d="M712.6,210.9c-12.47,0-21.7-3.53-27.7-10.6-2.13-2.53-3.87-5.9-5.2-10.1-1.33-4.2-2-9.3-2-15.3s.97-11.37,2.9-16.1c2-4.8,4.7-8.5,8.1-11.1,6.6-4.87,14.57-7.3,23.9-7.3,2.67,0,5.27.23,7.8.7,2.53.4,4.43.83,5.7,1.3l1.8.7-.3,1c-4.53-1.8-9.53-2.7-15-2.7-7.07,0-12.97,2.3-17.7,6.9-3.6,3.4-6.13,8.4-7.6,15-.87,3.73-1.3,8.3-1.3,13.7s.77,10.4,2.3,15c1.53,4.53,3.27,7.9,5.2,10.1,2,2.2,4.4,3.97,7.2,5.3,2.8,1.27,5.03,2,6.7,2.2,1.67.2,3.67.3,6,.3s5.1-.23,8.1-.7c3-.47,5.27-.9,6.8-1.3l2.3-.7.3,1c-5.07,1.8-11.17,2.7-18.3,2.7Z"/>
      <path class="cls-9" d="M747.72,210.5h-8.3v-70h8.3v32.2h32.5v-32.2h8.3v70h-8.3v-36.8h-32.5v36.8Z"/>
      <path class="cls-9" d="M840.3,140.5v1h-31.5v33h159.2v1h-159.2v34h33.7v1h-42v-70h39.8Z"/>
    </g>
    <g>
      <g class="cls-8">
        <path class="cls-9" d="M1920,233H0v-2h1920v2Z"/>
      </g>
      <path class="cls-9" d="M554.49,254.5v1h-31.5v30h29.2v1h-29.2v37h33.7v1h-42v-70h39.8Z"/>
      <path class="cls-9" d="M588.83,324.5h-8.3v-69h-17.3v-1h43v1h-17.4v69Z"/>
      <path class="cls-9" d="M643.34,324.5h-1.2l29.9-70,1.1-.5,25.2,70.5h-8.5l-7.8-22h-29.2l-9.5,22ZM668.94,265.3l-15.7,36.2h28.5l-12.8-36.2Z"/>
      <path class="cls-9" d="M756.45,254.5h1.3v40c0,10.47-2.07,18.17-6.2,23.1-4.13,4.87-9.53,7.3-16.2,7.3-4.2,0-7.77-.37-10.7-1.1-2.93-.8-5.7-2.23-8.3-4.3-5.33-4.13-8-12.47-8-25v-40h8.3v39.9c0,12.13,1.83,20.23,5.5,24.3,1.87,2,3.8,3.37,5.8,4.1,2.07.73,4.53,1.1,7.4,1.1,6.4,0,11.5-2.33,15.3-7,3.87-4.73,5.8-12.23,5.8-22.5v-39.9Z"/>
      <path class="cls-9" d="M791.86,324.5h-8.3v-69h-17.3v-1h43v1h-17.4v69Z"/>
      <path class="cls-9" d="M825.59,324.5h-8.3v-70h8.3v32.2h32.5v-32.2h8.3v70h-8.3v-36.8h-32.5v36.8Z"/>
      <path class="cls-9" d="M918.17,254.5v1h-31.5v30h29.2v1h-29.2v37h33.7v1h-42v-70h39.8Z"/>
      <path class="cls-9" d="M931.71,324.5h-1.3v-70h3.4l41.6,64.7v-64.7h1.3v70h-7.3l-37.7-58v58Z"/>
      <path class="cls-9" d="M1011.78,324.5h-8.3v-69h-17.3v-1h43v1h-17.4v69Z"/>
      <path class="cls-9" d="M1039.21,255.5v-1h17.8v1h-4.9v68h4.9v1h-17.8v-1h4.6v-68h-4.6Z"/>
      <path class="cls-9" d="M1067.09,289.7c0-10.87,2.93-19.5,8.8-25.9,5.87-6.47,13.27-9.7,22.2-9.7s16.53,2.4,22,7.2c6,5.4,9,14.87,9,28.4,0,9.73-2.4,17.67-7.2,23.8-4.73,6.13-10.93,9.8-18.6,11,4.2.93,9.27,3.73,15.2,8.4,2.27,1.8,4.73,3.6,7.4,5.4,6,4,13.3,6,21.9,6v1c-12.13,0-21.57-1.33-28.3-4-5.67-2.33-9.77-5.13-12.3-8.4-1.13-1.47-2.17-2.8-3.1-4-.87-1.13-1.77-2.1-2.7-2.9-.93-.73-2.03-1.1-3.3-1.1-4.67,0-8.77-.53-12.3-1.6-3.53-1.07-6.77-2.87-9.7-5.4-6-5.27-9-14.67-9-28.2ZM1075.39,289.5c0,22.93,7.57,34.4,22.7,34.4,6.53,0,11.93-3.07,16.2-9.2,4.33-6.13,6.5-14.53,6.5-25.2,0-22.93-7.57-34.4-22.7-34.4-6.53,0-11.97,3.07-16.3,9.2-4.27,6.13-6.4,14.53-6.4,25.2Z"/>
      <path class="cls-9" d="M1188.19,254.5h1.3v40c0,10.47-2.07,18.17-6.2,23.1-4.14,4.87-9.54,7.3-16.2,7.3-4.2,0-7.77-.37-10.7-1.1-2.94-.8-5.7-2.23-8.3-4.3-5.34-4.13-8-12.47-8-25v-40h8.3v39.9c0,12.13,1.83,20.23,5.5,24.3,1.86,2,3.8,3.37,5.8,4.1,2.06.73,4.53,1.1,7.4,1.1,6.4,0,11.5-2.33,15.3-7,3.86-4.73,5.8-12.23,5.8-22.5v-39.9Z"/>
      <path class="cls-9" d="M1761.8,254.5v1h-551.5v30h549.2v1h-549.2v37h553.7v1h-562v-70h559.8Z"/>
    </g>
    <g>
      <g class="cls-10">
        <path class="cls-9" d="M1920,348.5H0v-2h1920v2ZM0,464.5h1920v2H0v-2Z"/>
      </g>
      <path class="cls-9" d="M1069.8,440.5h-1.3l8.7-70h3.3l21,64.7,20.9-64.7h3.3l8.7,70h-8.3l-6.9-56-18.1,56h-6.3l-18.3-55.3-6.7,55.3ZM1144.44,407.2c0-12.13,2.93-21.33,8.8-27.6,5.93-6.33,13.53-9.5,22.8-9.5s16.63,2.73,22.1,8.2c5.53,5.47,8.3,14.2,8.3,26.2s-2.93,21.07-8.8,27.2-13.7,9.2-23.5,9.2c-8.47,0-15.4-2.43-20.8-7.3-2.8-2.53-5-6.03-6.6-10.5-1.53-4.53-2.3-9.83-2.3-15.9ZM1175.74,371.1c-6.73,0-12.27,3-16.6,9-4.27,6-6.4,14.8-6.4,26.4s2.03,20.07,6.1,25.4c4.07,5.33,9.47,8,16.2,8s12.33-3,16.6-9c4.33-6.07,6.5-14.83,6.5-26.3s-2.07-20-6.2-25.4c-4.07-5.4-9.47-8.1-16.2-8.1ZM1218.24,440.5h-1.3v-70h3.4l41.6,64.7v-64.7h1.3v70h-7.3l-37.7-58v58ZM1328.2,440.5h-8.3v-69h-17.3v-1h43v1h-17.4v69ZM1355.62,371.3c7.73-.53,14.57-.8,20.5-.8,16.47,0,24.7,5.5,24.7,16.5,0,4.67-1.13,8.83-3.4,12.5-2.27,3.67-6.17,6.1-11.7,7.3l20,33.7h-9.3l-19.6-33.1h-12.9v33.1h-8.3v-69.2ZM1376.12,371.5c-3.87,0-7.93.23-12.2.7v34.2h14.8c9.4-.4,14.1-6.8,14.1-19.2,0-5.07-1.4-8.93-4.2-11.6-2.8-2.73-6.97-4.1-12.5-4.1ZM1412.88,440.5h-1.2l29.9-70,1.1-.5,25.2,70.5h-8.5l-7.8-22h-29.2l-9.5,22ZM1438.48,381.3l-15.7,36.2h28.5l-12.8-36.2ZM1516,370.5c1.27,1.27,1.9,2.9,1.9,4.9,0,1.67-.36,3.37-1.1,5.1l-25.6,60-1.1.5-25.2-70.5h8.5l20.9,59.2,21.3-49.2c.74-1.67,1.1-3.4,1.1-5.2s-.5-3.2-1.5-4.2l.8-.6ZM1516.1,440.5h-1.2l29.9-70,1.1-.5,25.2,70.5h-8.5l-7.8-22h-29.2l-9.5,22ZM1541.7,381.3l-15.7,36.2h28.5l-12.8-36.2ZM1581.11,371.5v-1h17.8v1h-4.9v68h4.9v1h-17.8v-1h4.6v-68h-4.6ZM1650.95,440.5h-38v-70h8.3v69h29.7v1Z"/>
      <path class="cls-9" d="M508.99,371.65c2.93-.13,5.8-.2,8.6-.2s5.87.3,9,.9c3.2.6,6.33,1.73,9.4,3.4,3.13,1.6,5.77,3.7,7.9,6.3,2.2,2.53,3.97,5.9,5.3,10.1,1.33,4.2,2,9.3,2,15.3s-1,11.4-3,16.2c-1.93,4.73-4.6,8.37-8,10.9-6.6,4.93-14.57,7.4-23.9,7.4-3.27,0-6.7-.13-10.3-.4h-5v-69.9h8ZM509.29,440.75c1.4.13,3.17.2,5.3.2s3.73-.03,4.8-.1c1.07-.07,2.53-.33,4.4-.8,1.87-.53,3.6-1.23,5.2-2.1,1.6-.87,3.27-2.13,5-3.8,1.8-1.73,3.33-3.77,4.6-6.1,2.87-5.47,4.3-12.6,4.3-21.4,0-6.27-.77-11.67-2.3-16.2-1.53-4.6-3.3-8-5.3-10.2-1.93-2.2-4.3-3.93-7.1-5.2-2.8-1.33-5.03-2.1-6.7-2.3-1.67-.2-3.6-.3-5.8-.3s-4.33.1-6.4.3v68Z"/>
      <path class="cls-9" d="M556.39,441.55h-1.2l29.9-70,1.1-.5,25.2,70.5h-8.5l-7.8-22h-29.2l-9.5,22ZM581.99,382.35l-15.7,36.2h28.5l-12.8-36.2Z"/>
      <path class="cls-9" d="M621.22,441.55h-1.3v-70h3.4l41.6,64.7v-64.7h1.3v70h-7.3l-37.7-58v58Z"/>
      <path class="cls-9" d="M1046.6,375.75c-6.07-2.33-341.8-3.5-347.2-3.5s-9.5,1.13-12.5,3.4c-3,2.27-4.5,5.4-4.5,9.4,0,4.87,2.53,8.63,7.6,11.3,2.27,1.13,4.73,2.2,7.4,3.2,2.73.93,5.47,2,8.2,3.2,2.73,1.2,5.23,2.57,7.5,4.1,2.27,1.53,4.1,3.67,5.5,6.4,1.4,2.67,2.1,6.1,2.1,10.3s-1.17,7.67-3.5,10.6c-2.33,2.93-5.17,4.93-8.5,6-3.27,1-7.1,1.5-11.5,1.5-8.2,0-15.2-2.03-21-6.1l.5-.8c2.2,1.73,5.03,3.17,8.5,4.3,3.53,1.07,7.13,1.6,10.8,1.6,5.4,0,10-1.23,13.8-3.7,3.87-2.53,5.8-6.23,5.8-11.1,0-5.33-2.53-9.5-7.6-12.5-2.27-1.33-4.77-2.57-7.5-3.7-2.67-1.13-5.37-2.3-8.1-3.5-2.73-1.27-5.23-2.67-7.5-4.2-5.07-3.33-7.6-8.07-7.6-14.2,0-4.87,1.63-8.8,4.9-11.8,3.27-3.07,8.17-4.6,14.7-4.6s343.3,1.13,350.1,3.4l-.4,1Z"/>
    </g>
  </g>
</svg>