<?xml version="1.0" encoding="UTF-8"?>
<svg id="Calque_2" xmlns="http://www.w3.org/2000/svg" viewBox="0 0 1452 523.4">
  <defs>
    <style>
      .cls-1 {
        stroke-miterlimit: 4;
        stroke-width: 1px;
      }

      .cls-1, .cls-2, .cls-3 {
        fill: none;
        stroke: #2eb2db;
      }

      .cls-4 {
        fill: #2eb2db;
      }

      .cls-2 {
        stroke-miterlimit: 4;
        stroke-width: 1px;
      }
    </style>
  </defs>
  <g id="Calque_1-2" data-name="Calque_1">
    <path class="cls-4" d="M401.9,9.2c-6.07-2.33-11.8-3.5-17.2-3.5s-9.5,1.13-12.5,3.4-4.5,5.4-4.5,9.4c0,4.87,2.53,8.63,7.6,11.3,2.27,1.13,4.73,2.2,7.4,3.2,2.73.93,5.47,2,8.2,3.2,2.73,1.2,5.23,2.57,7.5,4.1,2.27,1.53,4.1,3.67,5.5,6.4,1.4,2.67,2.1,6.1,2.1,10.3s-1.17,7.67-3.5,10.6c-2.33,2.93-5.17,4.93-8.5,6-3.27,1-7.1,1.5-11.5,1.5-8.2,0-15.2-2.03-21-6.1l.5-.8c2.2,1.73,5.03,3.17,8.5,4.3,3.53,1.07,7.13,1.6,10.8,1.6,5.4,0,10-1.23,13.8-3.7,3.87-2.53,5.8-6.23,5.8-11.1,0-5.33-2.53-9.5-7.6-12.5-2.27-1.33-4.77-2.57-7.5-3.7-2.67-1.13-5.37-2.3-8.1-3.5-2.73-1.27-5.23-2.67-7.5-4.2-5.07-3.33-7.6-8.07-7.6-14.2,0-4.87,1.63-8.8,4.9-11.8,3.27-3.07,8.17-4.6,14.7-4.6s13.3,1.13,20.1,3.4l-.4,1ZM413.67,75h-1.2l29.9-70,1.1-.5,25.2,70.5h-8.5l-7.8-22h-29.2l-9.5,22ZM439.27,15.8l-15.7,36.2h28.5l-12.8-36.2ZM515.7,75h-38V5h8.3v69h29.7v1ZM570.82,5h1.3v40c0,10.47-2.07,18.17-6.2,23.1-4.13,4.87-9.53,7.3-16.2,7.3-4.2,0-7.77-.37-10.7-1.1-2.93-.8-5.7-2.23-8.3-4.3-5.33-4.13-8-12.47-8-25V5h8.3v39.9c0,12.13,1.83,20.23,5.5,24.3,1.87,2,3.8,3.37,5.8,4.1,2.07.73,4.53,1.1,7.4,1.1,6.4,0,11.5-2.33,15.3-7,3.87-4.73,5.8-12.23,5.8-22.5V5ZM606.23,75h-8.3V6h-17.3v-1h43v1h-17.4v69ZM667.23,0h7l-2,52.5h-3l-2-52.5ZM667.84,69.8c-.8-.87-1.2-1.9-1.2-3.1s.4-2.2,1.2-3c.8-.8,1.8-1.2,3-1.2s2.2.4,3,1.2c.87.8,1.3,1.8,1.3,3s-.43,2.23-1.3,3.1c-.8.8-1.8,1.2-3,1.2s-2.2-.4-3-1.2Z"/>
    <path id="J" class="cls-4" d="M1130.88,30.84v-.64h11.39v36.35c0,3.37-.68,5.63-2.05,6.78-1.36,1.11-3.43,1.66-6.2,1.66s-435.17-.4-437.3-1.22l.19-.51c2.05.81,434.16,1.22,436.34,1.22,1.45,0,2.41-.62,2.88-1.86.51-1.24.77-3.24.77-6.02V30.84h-6.02Z"/>
    <path class="cls-4" d="M1176.7,30.2v.64h-20.16v19.2h18.69v.64h-18.69v23.68h21.57v.64h-26.88V30.2h25.47Z"/>
    <path class="cls-4" d="M1227.6,32.89c-3.89-1.49-7.56-2.24-11.01-2.24s-6.08.72-8,2.18c-1.92,1.45-2.88,3.46-2.88,6.02,0,3.11,1.62,5.52,4.86,7.23,1.45.73,3.03,1.41,4.74,2.05,1.75.6,3.5,1.28,5.25,2.05s3.35,1.64,4.8,2.62c1.45.98,2.62,2.35,3.52,4.1.89,1.71,1.34,3.9,1.34,6.59s-.75,4.91-2.24,6.78c-1.49,1.88-3.31,3.16-5.44,3.84-2.09.64-4.54.96-7.36.96-5.25,0-9.73-1.3-13.44-3.9l.32-.51c1.41,1.11,3.22,2.03,5.44,2.75,2.26.68,4.57,1.02,6.91,1.02,3.46,0,6.4-.79,8.83-2.37,2.48-1.62,3.72-3.99,3.72-7.1,0-3.41-1.63-6.08-4.87-8-1.45-.85-3.05-1.64-4.8-2.37-1.7-.73-3.43-1.47-5.18-2.24-1.75-.81-3.35-1.71-4.8-2.69-3.24-2.13-4.87-5.16-4.87-9.09,0-3.11,1.05-5.63,3.14-7.55,2.09-1.96,5.23-2.94,9.41-2.94s8.51.73,12.86,2.18l-.25.64Z"/>
    <path class="cls-4" d="M1267.7,30.2h.83v25.6c0,6.7-1.32,11.63-3.96,14.78-2.65,3.11-6.11,4.67-10.37,4.67-2.69,0-4.97-.24-6.85-.7-1.88-.51-3.65-1.43-5.31-2.75-3.42-2.64-5.12-7.98-5.12-16v-25.6h5.31v25.54c0,7.77,1.17,12.95,3.52,15.55,1.19,1.28,2.43,2.15,3.71,2.62,1.32.47,2.9.7,4.74.7,4.09,0,7.36-1.49,9.79-4.48,2.47-3.03,3.71-7.83,3.71-14.4v-25.54Z"/>
    <path class="cls-4" d="M1277.17,30.84v-.64h11.39v.64h-3.14v43.52h3.14v.64h-11.39v-.64h2.94V30.84h-2.94Z"/>
    <path class="cls-4" d="M1321.16,32.89c-3.88-1.49-7.55-2.24-11.01-2.24s-6.08.72-8,2.18c-1.92,1.45-2.88,3.46-2.88,6.02,0,3.11,1.62,5.52,4.86,7.23,1.45.73,3.03,1.41,4.74,2.05,1.75.6,3.5,1.28,5.25,2.05s3.35,1.64,4.8,2.62c1.45.98,2.62,2.35,3.52,4.1.89,1.71,1.34,3.9,1.34,6.59s-.74,4.91-2.24,6.78c-1.49,1.88-3.3,3.16-5.44,3.84-2.09.64-4.54.96-7.36.96-5.25,0-9.73-1.3-13.44-3.9l.32-.51c1.41,1.11,3.22,2.03,5.44,2.75,2.26.68,4.57,1.02,6.91,1.02,3.46,0,6.4-.79,8.84-2.37,2.47-1.62,3.71-3.99,3.71-7.1,0-3.41-1.62-6.08-4.87-8-1.45-.85-3.05-1.64-4.8-2.37-1.7-.73-3.43-1.47-5.18-2.24-1.75-.81-3.35-1.71-4.8-2.69-3.24-2.13-4.86-5.16-4.86-9.09,0-3.11,1.04-5.63,3.13-7.55,2.09-1.96,5.23-2.94,9.41-2.94s8.51.73,12.86,2.18l-.25.64Z"/>
    <path class="cls-4" d="M39.87,217.06c-.79-.08-1.4-.44-1.81-1.06-.42-.62-.58-1.31-.5-2.06.21-1.29.6-2.48,1.19-3.56.58-1.08,1-1.9,1.25-2.44.29-.54.58-1.15.88-1.81l2.38-5.5,25.69-76.94,27.63,53.38,26.81-53.38,32.06,92.44h-33.56l-15.5-47.75-24,50-25.25-45-8.75,27.31c-1.38,3.04-2.35,5.62-2.94,7.75-.58,2.12-1.06,3.77-1.44,4.94-.83,2.62-2.21,3.85-4.12,3.69Z"/>
    <path class="cls-4" d="M162.31,216.12h-1.54l38.27-89.6,1.41-.64,32.26,90.24h-10.88l-9.98-28.16h-37.38l-12.16,28.16ZM195.08,140.34l-20.1,46.34h36.48l-16.38-46.34Z"/>
    <path class="cls-4" d="M264.17,216.12h-10.62v-88.32h-22.14v-1.28h55.04v1.28h-22.27v88.32Z"/>
    <path class="cls-4" d="M295.43,216.12v-94.08h13.82v38.91h10.75v-38.91h13.82v94.08h-13.82v-40.96h-10.75v40.96h-13.82Z"/>
    <path class="cls-4" d="M347.89,127.8v-1.28h22.78v1.28h-6.27v87.04h6.27v1.28h-22.78v-1.28h5.89v-87.04h-5.89Z"/>
    <path class="cls-4" d="M435.88,131.9c-7.77-2.99-15.1-4.48-22.02-4.48s-12.16,1.45-16,4.35-5.76,6.91-5.76,12.03c0,6.23,3.24,11.05,9.73,14.46,2.9,1.45,6.06,2.82,9.47,4.1,3.5,1.2,7,2.56,10.5,4.1,3.5,1.54,6.7,3.29,9.6,5.25,2.9,1.96,5.25,4.69,7.04,8.19,1.79,3.41,2.69,7.81,2.69,13.18s-1.49,9.81-4.48,13.57-6.61,6.32-10.88,7.68c-4.18,1.28-9.09,1.92-14.72,1.92-10.5,0-19.46-2.6-26.88-7.81l.64-1.02c2.82,2.22,6.44,4.05,10.88,5.5,4.52,1.36,9.13,2.05,13.82,2.05,6.91,0,12.8-1.58,17.66-4.74,4.95-3.24,7.42-7.98,7.42-14.21,0-6.83-3.24-12.16-9.73-16-2.9-1.71-6.1-3.28-9.6-4.74-3.41-1.45-6.87-2.94-10.37-4.48-3.5-1.62-6.7-3.41-9.6-5.38-6.48-4.27-9.73-10.33-9.73-18.18,0-6.23,2.09-11.26,6.27-15.1,4.18-3.93,10.45-5.89,18.82-5.89s17.02,1.45,25.73,4.35l-.51,1.28Z"/>
    <path id="L" class="cls-4" d="M591.41,216.12h-98.64v-89.6h10.62v88.32h88.02v1.28Z"/>
    <path class="cls-4" d="M604.27,127.8v-1.28h22.78v1.28h-6.27v87.04h6.27v1.28h-22.78v-1.28h5.89v-87.04h-5.89Z"/>
    <path class="cls-4" d="M695.96,126.52v1.28h-40.32v38.4h37.38v1.28h-37.38v47.36h43.14v1.28h-53.76v-89.6h50.94Z"/>
    <path class="cls-4" d="M788.56,211.56l.12-4.31v-9.88c-5.88,9.79-14.54,16.02-26,18.69-3.62.83-7.85,1.25-12.69,1.25s-9.77-1-14.94-3c-5.12-2-9.62-4.9-13.5-8.69-8.5-8.25-12.75-19.1-12.75-32.56s4.5-23.77,13.5-32.69c9.38-9.21,21.15-13.81,35.31-13.81,7.17,0,13.65,1.33,19.44,4,3.54,1.58,6.04,3.06,7.5,4.44,1.46,1.33,2.19,2.42,2.19,3.25s-.25,1.48-.75,2.06c-.5.58-1.21.88-2.12.88s-1.85-.48-2.94-1.44c-3.21-2.83-6.04-4.69-8.5-5.56-2.42-.88-4.35-1.5-5.81-1.88-1.46-.38-2.77-.65-3.94-.81-1.79-.25-3.92-.38-6.38-.38s-4.73.21-6.81.62v80.88c.46.04.92.06,1.38.06h1.25c12.38,0,22.4-4.69,30.06-14.06,2.62-3.21,4.79-7,6.5-11.38v-6s-.1-1.88-.31-5.62c0-2.21.88-3.31,2.62-3.31.92,0,1.62.31,2.12.94.5.58.75,1.31.75,2.19l-.38,5.19v23.25l.38,9.69c0,1-.29,1.79-.88,2.38-.54.58-1.19.88-1.94.88-1.83,0-2.75-.96-2.75-2.88,0-.5.08-1.29.25-2.38Z"/>
    <path class="cls-4" d="M874.46,126.52v1.28h-50.32v38.4h47.38v1.28h-47.38v47.36h53.14v1.28h-63.76v-89.6h60.94Z"/>
    <path class="cls-4" d="M902.12,204.87c-4.12-4.04-7.42-8.92-9.88-14.62-2.42-5.75-3.62-12-3.62-18.75s1.15-12.88,3.44-18.25c2.33-5.42,5.54-10.1,9.62-14.06,8.75-8.42,19.73-12.62,32.94-12.62s23.88,4.15,32.25,12.44c8.5,8.42,12.75,19.33,12.75,32.75s-4.35,24.38-13.06,33c-5.46,5.33-12.17,9.02-20.12,11.06-3.96,1-8.56,1.5-13.81,1.5s-10.56-1.06-16.06-3.19c-5.5-2.17-10.31-5.25-14.44-9.25ZM934.56,131.12c-2.29,0-4.44.17-6.44.5v80.62c1.92.33,4.06.5,6.44.5,11.12,0,20.5-3.71,28.12-11.12,7.96-7.71,11.94-17.67,11.94-29.88s-3.73-21.29-11.19-29c-7.54-7.75-17.17-11.62-28.88-11.62Z"/>
    <path class="cls-4" d="M996.42,216.12h-1.67v-89.6h4.36l53.24,82.82v-82.82h1.67v89.6h-9.35l-48.25-74.24v74.24Z"/>
    <path class="cls-4" d="M51.1,257.4c1.27,1.27,1.9,2.9,1.9,4.9,0,1.67-.37,3.37-1.1,5.1l-25.6,60-1.1.5L0,257.4h8.5l20.9,59.2,21.3-49.2c.73-1.67,1.1-3.4,1.1-5.2s-.5-3.2-1.5-4.2l.8-.6Z"/>
    <path class="cls-4" d="M59.03,294.1c0-12.13,2.93-21.33,8.8-27.6,5.93-6.33,13.53-9.5,22.8-9.5s16.63,2.73,22.1,8.2c5.53,5.47,8.3,14.2,8.3,26.2s-2.93,21.07-8.8,27.2c-5.87,6.13-13.7,9.2-23.5,9.2-8.47,0-15.4-2.43-20.8-7.3-2.8-2.53-5-6.03-6.6-10.5-1.53-4.53-2.3-9.83-2.3-15.9ZM90.33,258c-6.73,0-12.27,3-16.6,9-4.27,6-6.4,14.8-6.4,26.4s2.03,20.07,6.1,25.4c4.07,5.33,9.47,8,16.2,8s12.33-3,16.6-9c4.33-6.07,6.5-14.83,6.5-26.3s-2.07-20-6.2-25.4c-4.07-5.4-9.47-8.1-16.2-8.1Z"/>
    <path id="I" class="cls-4" d="M133,258.4v-1h18.8v1h-5.9v68h324.9v1H133v-1h4.6v-68h-4.6Z"/>
    <path class="cls-4" d="M516.76,327.8c-12.47,0-21.7-3.53-27.7-10.6-2.13-2.53-3.87-5.9-5.2-10.1-1.33-4.2-2-9.3-2-15.3s.97-11.37,2.9-16.1c2-4.8,4.7-8.5,8.1-11.1,6.6-4.87,14.57-7.3,23.9-7.3,2.67,0,5.27.23,7.8.7,2.53.4,4.43.83,5.7,1.3l1.8.7-.3,1c-4.53-1.8-9.53-2.7-15-2.7-7.07,0-12.97,2.3-17.7,6.9-3.6,3.4-6.13,8.4-7.6,15-.87,3.73-1.3,8.3-1.3,13.7s.77,10.4,2.3,15c1.53,4.53,3.27,7.9,5.2,10.1,2,2.2,4.4,3.97,7.2,5.3,2.8,1.27,5.03,2,6.7,2.2,1.67.2,3.67.3,6,.3s5.1-.23,8.1-.7c3-.47,5.27-.9,6.8-1.3l2.3-.7.3,1c-5.07,1.8-11.17,2.7-18.3,2.7Z"/>
    <path class="cls-4" d="M545.58,258.4v-1h17.8v1h-4.9v68h4.9v1h-17.8v-1h4.6v-68h-4.6Z"/>
    <path class="cls-4" d="M470.78,486.67l5.28.24c7.67,0,13.99-2.53,18.97-7.59,5.06-5.1,7.71-11.7,7.94-19.8.43-12.49-5.57-20.93-18.02-25.31-4.66-1.66-10.73-2.49-18.2-2.49h-4.98v79.55h-30.23v-83.88h22.7c12.25,0,19.64.18,22.17.53,2.53.36,5.16.81,7.88,1.36,2.77.55,5.73,1.76,8.89,3.62,3.2,1.86,5.91,4.07,8.12,6.64,4.47,5.22,6.62,11.34,6.46,18.38-.24,8.97-2.86,16.44-7.88,22.41-5.1,6.01-12.13,9.72-21.1,11.14-2.61.36-4.66.53-6.16.53-3.56,0-5.34-.97-5.34-2.9,0-.71.32-1.28.95-1.72.63-.47,1.48-.71,2.55-.71Z"/>
    <path class="cls-4" d="M517.1,470.85c0-14.73,3.56-25.9,10.68-33.51,7.2-7.69,16.43-11.53,27.68-11.53s20.19,3.32,26.83,9.96c6.72,6.64,10.08,17.24,10.08,31.81s-3.56,25.58-10.68,33.02c-7.12,7.45-16.63,11.17-28.53,11.17-10.28,0-18.7-2.95-25.25-8.86-3.4-3.08-6.07-7.32-8.01-12.75-1.86-5.5-2.79-11.94-2.79-19.3ZM555.1,427.02c-8.17,0-14.89,3.64-20.15,10.93-5.18,7.28-7.77,17.97-7.77,32.05s2.47,24.36,7.41,30.84c4.94,6.47,11.49,9.71,19.67,9.71s14.97-3.64,20.15-10.93c5.26-7.36,7.89-18.01,7.89-31.93s-2.51-24.28-7.53-30.84c-4.94-6.56-11.49-9.83-19.67-9.83Z"/>
    <path class="cls-4" d="M603.27,511.27v-89.23h13.11c7.85,0,13.64,2.18,17.36,6.55,3.72,4.33,5.58,10.72,5.58,19.18,0,5.02-.89,9.37-2.67,13.05-1.74,3.64-3.87,6.31-6.37,8.01l8.92,42.43h-13.11l-7.41-37.64h-2.31v37.64h-13.11ZM616.38,461.5c2.43,0,4.35-.53,5.77-1.58,1.42-1.09,2.43-2.63,3.04-4.61.61-1.98.91-4.33.91-7.04,0-4.25-.71-7.51-2.12-9.77-1.38-2.31-3.91-3.46-7.59-3.46v26.47Z"/>
    <path class="cls-4" d="M676.53,511.27h-10.08v-83.77h-21v-1.21h52.2v1.21h-21.12v83.77Z"/>
    <path id="F" class="cls-4" d="M1158.77,426.29v1.21h-438.87v38.85h436.08v1.21h-436.08v43.71h-10.08v-84.98h448.95Z"/>
    <path class="cls-4" d="M1182.28,500.6c-3.91-3.83-7.04-8.46-9.37-13.87-2.29-5.45-3.44-11.38-3.44-17.78s1.09-12.21,3.26-17.31c2.22-5.14,5.26-9.58,9.13-13.34,8.3-7.98,18.72-11.98,31.24-11.98s22.65,3.93,30.59,11.8c8.06,7.98,12.1,18.34,12.1,31.06s-4.13,23.12-12.39,31.3c-5.18,5.06-11.54,8.56-19.09,10.49-3.76.95-8.12,1.42-13.1,1.42s-10.02-1.01-15.24-3.02c-5.21-2.05-9.78-4.98-13.69-8.77ZM1213.04,430.65c-2.17,0-4.2.16-6.1.47v76.47c1.82.32,3.85.47,6.1.47,10.56,0,19.45-3.52,26.68-10.55,7.55-7.31,11.32-16.76,11.32-28.34s-3.53-20.19-10.61-27.51c-7.15-7.35-16.28-11.03-27.39-11.03Z"/>
    <path class="cls-4" d="M1316.88,511.27h-46.13v-84.98h10.07v83.77h36.06v1.21Z"/>
    <path class="cls-4" d="M1329.08,427.51v-1.21h21.61v1.21h-5.95v82.55h5.95v1.21h-21.61v-1.21h5.58v-82.55h-5.58Z"/>
    <path class="cls-4" d="M1378.49,500.6c-3.91-3.83-7.03-8.46-9.36-13.87-2.29-5.45-3.44-11.38-3.44-17.78s1.09-12.21,3.26-17.31c2.21-5.14,5.26-9.58,9.13-13.34,8.3-7.98,18.71-11.98,31.24-11.98s22.64,3.93,30.59,11.8c8.06,7.98,12.09,18.34,12.09,31.06s-4.13,23.12-12.39,31.3c-5.18,5.06-11.54,8.56-19.09,10.49-3.75.95-8.12,1.42-13.1,1.42s-10.02-1.01-15.23-3.02c-5.22-2.05-9.78-4.98-13.7-8.77ZM1409.26,430.65c-2.17,0-4.21.16-6.11.47v76.47c1.82.32,3.86.47,6.11.47,10.55,0,19.44-3.52,26.68-10.55,7.54-7.31,11.32-16.76,11.32-28.34s-3.54-20.19-10.61-27.51c-7.16-7.35-16.29-11.03-27.39-11.03Z"/>
    <path class="cls-4" d="M331.74,392.4h-.62l4.18-33.6h1.58l10.08,31.06,10.03-31.06h1.58l4.18,33.6h-3.98l-3.31-26.88-8.69,26.88h-3.02l-8.78-26.54-3.22,26.54ZM367.57,376.42c0-5.82,1.41-10.24,4.22-13.25,2.85-3.04,6.5-4.56,10.94-4.56s7.98,1.31,10.61,3.94c2.66,2.62,3.98,6.82,3.98,12.58s-1.41,10.11-4.22,13.06c-2.82,2.94-6.58,4.42-11.28,4.42-4.06,0-7.39-1.17-9.98-3.5-1.34-1.22-2.4-2.9-3.17-5.04-.74-2.18-1.1-4.72-1.1-7.63ZM382.6,359.09c-3.23,0-5.89,1.44-7.97,4.32-2.05,2.88-3.07,7.1-3.07,12.67s.98,9.63,2.93,12.19,4.54,3.84,7.78,3.84,5.92-1.44,7.97-4.32c2.08-2.91,3.12-7.12,3.12-12.62s-.99-9.6-2.98-12.19c-1.95-2.59-4.54-3.89-7.78-3.89ZM402.99,392.4h-.62v-33.6h1.63l19.97,31.06v-31.06h.62v33.6h-3.5l-18.1-27.84v27.84Z"/>
    <g id="Star-2">
      <line class="cls-3" x1="412.5" y1="523.4" x2="412.5" y2="421.4"/>
      <line class="cls-3" x1="413" y1="472.67" x2="358" y2="472.67"/>
      <line class="cls-1" x1="412.65" y1="472.52" x2="373.76" y2="433"/>
      <line class="cls-1" x1="412.89" y1="472.59" x2="374" y2="512.11"/>
    </g>
    <g id="Star">
      <line class="cls-3" x1="1148.5" y1="117" x2="1148.5" y2="222"/>
      <line class="cls-3" x1="1095.71" y1="168.76" x2="1200.3" y2="168.76"/>
      <line class="cls-2" x1="1111.27" y1="131.51" x2="1185.44" y2="206.3"/>
      <line class="cls-2" x1="1110.57" y1="206.3" x2="1184.73" y2="131.51"/>
    </g>
  </g>
</svg>