<svg width="1054" height="151" viewBox="0 0 1054 151" fill="none" xmlns="http://www.w3.org/2000/svg">
<path d="M5.66244e-07 149V2H27.4L39.2 78.2L40.2 86H40.6L41.6 78.2L53.4 2H80.8V149H60.8V50.4H59.6L58.8 56.6L46 149H34.8L22 56.6L21.2 50.4H20V149H5.66244e-07ZM191.805 140.602C195.125 140.602 196.785 141.904 196.785 144.508C196.785 145.68 196.069 146.721 194.637 147.633C193.204 148.544 190.73 149 187.215 149H104.5V10.8164C130.151 10.8164 155.802 10.8164 181.453 10.8164L189.461 10.5234C194.344 10.5234 196.785 11.9557 196.785 14.8203C196.785 15.9271 196.362 16.9688 195.516 17.9453C194.734 18.8568 193.823 19.3125 192.781 19.3125C191.089 19.3125 189.298 19.1172 187.41 18.7266C184.611 18.1406 180.77 17.8477 175.887 17.8477H154.305V47.6328H172.078C172.078 47.6328 176.082 47.4701 184.09 47.1445C185.522 47.1445 186.727 47.5026 187.703 48.2188C188.745 48.8698 189.266 49.8138 189.266 51.0508C189.266 53.7852 187.443 55.1523 183.797 55.1523L179.598 55.0547C177.449 54.8594 175.659 54.7617 174.227 54.7617H154.305V141.871H175.887C180.704 141.871 184.122 141.676 186.141 141.285C188.549 140.829 190.438 140.602 191.805 140.602ZM239.672 150.6C233.739 150.6 228.805 149.633 224.872 147.7C220.939 145.7 217.839 142.833 215.572 139.1C213.305 135.367 211.672 130.867 210.672 125.6C209.739 120.333 209.272 114.4 209.272 107.8L230.472 105.8C230.472 109 230.572 112.1 230.772 115.1C231.039 118.033 231.472 120.7 232.072 123.1C232.739 125.433 233.672 127.3 234.872 128.7C236.139 130.1 237.739 130.8 239.672 130.8C242.872 130.8 245.139 129.333 246.472 126.4C247.805 123.4 248.472 119.8 248.472 115.6C248.472 111.4 247.372 107.033 245.172 102.5C242.972 97.9667 240.339 93.6667 237.272 89.6C232.072 82.6667 227.505 76.2333 223.572 70.3C219.705 64.3667 216.672 58.5333 214.472 52.8C212.339 47.0667 211.272 41.0667 211.272 34.8C211.272 29.8667 211.905 25.3333 213.172 21.2C214.439 17 216.272 13.3667 218.672 10.3C221.139 7.16666 224.105 4.73333 227.572 3C231.039 1.26666 235.005 0.399994 239.472 0.399994C245.005 0.399994 249.672 1.33333 253.472 3.19999C257.339 5.06666 260.439 7.73333 262.772 11.2C265.172 14.6667 266.905 18.8 267.972 23.6C269.105 28.3333 269.672 33.6 269.672 39.4L248.472 41.4C248.472 38.9333 248.339 36.4667 248.072 34C247.872 31.4667 247.472 29.1667 246.872 27.1C246.272 25.0333 245.405 23.3667 244.272 22.1C243.139 20.8333 241.672 20.2 239.872 20.2C237.072 20.2 235.139 21.4 234.072 23.8C233.005 26.1333 232.472 29.4667 232.472 33.8C232.472 39.4 233.972 44.8 236.972 50C239.972 55.2 244.005 61.2667 249.072 68.2C255.139 76.4 260.072 83.9333 263.872 90.8C267.739 97.6667 269.672 105.267 269.672 113.6C269.672 118.867 269.105 123.767 267.972 128.3C266.839 132.767 265.039 136.667 262.572 140C260.172 143.333 257.072 145.933 253.272 147.8C249.539 149.667 245.005 150.6 239.672 150.6ZM347.016 10.6C362.482 9.53332 376.082 8.99999 387.816 8.99999C420.882 8.99999 437.416 20.6667 437.416 44C437.416 54.8 434.616 64.2667 429.016 72.4C426.082 76.8 421.549 80.3333 415.416 83C409.282 85.5333 401.882 86.8 393.216 86.8H363.616V149H347.016V10.6ZM388.016 11C380.282 11 372.149 11.4667 363.616 12.4V84.8H393.216C412.016 84 421.416 70.5333 421.416 44.4C421.416 33.7333 418.616 25.5333 413.016 19.8C407.416 13.9333 399.082 11 388.016 11ZM457.563 10.6C473.029 9.53332 486.696 8.99999 498.563 8.99999C531.496 8.99999 547.963 20 547.963 42C547.963 51.3333 545.696 59.6667 541.163 67C536.629 74.3333 528.829 79.2 517.763 81.6L557.763 149H539.163L499.963 82.8H474.163V149H457.563V10.6ZM498.563 11C490.829 11 482.696 11.4667 474.163 12.4V80.8H503.763C522.563 80 531.963 67.2 531.963 42.4C531.963 32.2667 529.163 24.5333 523.563 19.2C517.963 13.7333 509.629 11 498.563 11ZM595.418 131.422C588.973 125.107 583.829 117.49 579.988 108.57C576.212 99.5859 574.324 89.8203 574.324 79.2734C574.324 68.6615 576.115 59.1562 579.695 50.7578C583.341 42.2943 588.354 34.9701 594.734 28.7852C608.406 15.6341 625.561 9.05859 646.199 9.05859C666.707 9.05859 683.504 15.5365 696.59 28.4922C709.871 41.6432 716.512 58.7005 716.512 79.6641C716.512 100.562 709.708 117.75 696.102 131.227C687.573 139.56 677.091 145.322 664.656 148.512C658.471 150.074 651.277 150.855 643.074 150.855C634.936 150.855 626.57 149.195 617.977 145.875C609.383 142.49 601.863 137.672 595.418 131.422ZM646.102 16.1875C642.521 16.1875 639.168 16.4479 636.043 16.9688V142.945C639.038 143.466 642.391 143.727 646.102 143.727C663.484 143.727 678.133 137.932 690.047 126.344C702.482 114.299 708.699 98.7396 708.699 79.6641C708.699 61.5 702.872 46.3958 691.219 34.3516C679.435 22.2422 664.396 16.1875 646.102 16.1875ZM736.156 11V8.99999H771.756V122.6C771.756 133.133 769.623 140.2 765.356 143.8C761.09 147.267 754.623 149 745.956 149C737.423 149 729.823 147.733 723.156 145.2L723.756 143.6C730.156 146.133 736.756 147.4 743.556 147.4C748.09 147.4 751.09 145.467 752.556 141.6C754.156 137.733 754.956 131.467 754.956 122.8V11H736.156ZM879.35 8.99999V11H816.35V71H874.75V73H816.35V147H883.75V149H799.75V8.99999H879.35ZM913.228 149V24.2H892.828V2H955.228V24.2H934.828V149H913.228ZM1045.03 17.4C1032.9 12.7333 1021.43 10.4 1010.63 10.4C999.968 10.4 991.634 12.6667 985.634 17.2C979.634 21.7333 976.634 28 976.634 36C976.634 45.7333 981.701 53.2667 991.834 58.6C996.368 60.8667 1001.3 63 1006.63 65C1012.1 66.8667 1017.57 69 1023.03 71.4C1028.5 73.8 1033.5 76.5333 1038.03 79.6C1042.57 82.6667 1046.23 86.9333 1049.03 92.4C1051.83 97.7333 1053.23 104.6 1053.23 113C1053.23 121.267 1050.9 128.333 1046.23 134.2C1041.57 140.067 1035.9 144.067 1029.23 146.2C1022.7 148.2 1015.03 149.2 1006.23 149.2C989.834 149.2 975.834 145.133 964.234 137L965.234 135.4C969.634 138.867 975.301 141.733 982.234 144C989.301 146.133 996.501 147.2 1003.83 147.2C1014.63 147.2 1023.83 144.733 1031.43 139.8C1039.17 134.733 1043.03 127.333 1043.03 117.6C1043.03 106.933 1037.97 98.6 1027.83 92.6C1023.3 89.9333 1018.3 87.4667 1012.83 85.2C1007.5 82.9333 1002.1 80.6 996.634 78.2C991.168 75.6667 986.168 72.8667 981.634 69.8C971.501 63.1333 966.434 53.6667 966.434 41.4C966.434 31.6667 969.701 23.8 976.234 17.8C982.768 11.6667 992.568 8.6 1005.63 8.6C1018.83 8.6 1032.23 10.8667 1045.83 15.4L1045.03 17.4Z" fill="#2EB2DB"/>
</svg>
