<svg width="64" height="64" fill="none" xmlns="http://www.w3.org/2000/svg"><path d="M32 5.333C17.306 5.333 5.333 17.307 5.333 32c0 14.693 11.973 26.667 26.667 26.667 14.693 0 26.666-11.974 26.666-26.667C58.666 17.307 46.693 5.333 32 5.333zM8.026 32a23.9 23.9 0 012.08-9.76l11.44 31.333c-8-3.893-13.52-12.08-13.52-21.573zM32 55.973c-2.347 0-4.614-.346-6.774-.986l7.2-20.907 7.36 20.187c.054.106.107.24.16.32A23.05 23.05 0 0132 55.973zm3.306-35.226c1.44-.08 2.747-.24 2.747-.24 1.28-.16 1.147-2.054-.16-1.974 0 0-3.893.294-6.4.294-2.347 0-6.32-.294-6.32-.294-1.28-.053-1.44 1.92-.133 2 0 0 1.226.16 2.506.24l3.734 10.24-5.254 15.734-8.72-26c1.44-.054 2.747-.214 2.747-.214 1.28-.16 1.147-2.053-.16-1.973 0 0-3.893.293-6.4.293-.453 0-.987 0-1.547-.026 4.32-6.507 11.68-10.8 20.054-10.8 6.24 0 11.92 2.373 16.186 6.293-.106 0-.213-.027-.32-.027-2.346 0-4.026 2.054-4.026 4.267 0 1.973 1.146 3.653 2.346 5.627.907 1.6 1.974 3.653 1.974 6.613 0 2.053-.8 4.427-1.814 7.76l-2.4 8-8.64-25.813zm17.734-.24a23.973 23.973 0 01-8.987 32.213l7.333-21.173c1.36-3.414 1.814-6.16 1.814-8.587 0-.88-.054-1.707-.16-2.453z" fill="#2EB2DB"/></svg>