<svg width="64" height="64" fill="none" xmlns="http://www.w3.org/2000/svg"><g clip-path="url(#clip0_701_1937)"><path d="M0 .802v62.396h64V.802H0zm2.666 2.666h58.666V60.53H2.666V3.468zm19.532 32.668l-2.114 7.99c-.042.23-.126.27-.386.27h-3.916c-.27 0-.312-.084-.27-.386l7.572-26.52c.136-.48.218-.906.26-2.23 0-.178.094-.26.23-.26h5.584c.178 0 .27.042.312.26l8.49 28.792c.052.218 0 .344-.218.344h-4.396c-.23 0-.354-.052-.396-.23l-2.208-8.032H22.19l.008.002zm7.438-4.334c-.75-2.948-2.51-9.406-3.166-12.532h-.052c-.562 3.114-1.98 8.396-3.072 12.532h6.29zm12-14.822c0-1.718 1.188-2.73 2.73-2.73 1.626 0 2.73 1.104 2.73 2.73 0 1.76-1.146 2.73-2.782 2.73-1.594 0-2.688-.968-2.688-2.73h.01zm.302 6.062c0-.208.084-.292.302-.292h4.188c.24 0 .322.084.322.312v21.052c0 .218-.042.302-.312.302h-4.126c-.27 0-.354-.126-.354-.344V23.04l-.02.002z" fill="#2EB2DB"/></g><defs><clipPath id="clip0_701_1937"><path fill="#fff" d="M0 0h64v64H0z"/></clipPath></defs></svg>