<svg width="133" height="129" fill="none" xmlns="http://www.w3.org/2000/svg"><g clip-path="url(#clip0_513_1348)"><g clip-path="url(#clip1_513_1348)" fill="#2EB2DB"><path d="M3.8 48.95L41.74 48h.14l24.89.99h.18l32.09-1.27h.17l31.25 1.2c1.19.05 2.13 1.02 2.13 2.21v4.78c0 1.4-1.29 2.45-2.67 2.17-6.6-1.39-20.16-5.48-23.03-4.9-4.08.82-22.08 4.82-32.83 9.34-2.92 1.23-5.06 3.76-4.8 6.92l2.54 30.47v25.05c0 1.15-.89 2.11-2.04 2.21l-19.82 1.59c-1.53.12-2.72-1.31-2.31-2.79 0 0 16.16-57.95 16.66-60.45s-1.5-5.5-3-6c-.62-.21-1.42-.24-2.14-.21-.95.04-1.89.22-2.81.5L10.62 73.43c-.22.07-.45.1-.68.09l-7.8-.16a2.219 2.219 0 01-2.16-2.39l1.64-19.95c.09-1.13 1.02-2 2.15-2.03l.03-.04z"/><path d="M77.31 66.4c-.89.35-1.46 1.24-1.39 2.2.26 3.84.89 13.19.89 12.39 0-.8 4.67-10.33 5.77-12.54.15-.31.23-.64.23-.98 0-1.56-1.58-2.63-3.03-2.06l-2.47.98v.01zM87.48 127h-9.52c-1.2 0-2.17-.95-2.21-2.14l-.91-29.23c-.01-.41.09-.82.3-1.18l4.18-7.22c1.24-2.15 4.53-.93 4.09 1.51-.53 2.95-.94 5.42-.96 6.05-.04 1.82 0 2.68.08 3.33.17 1.23.77 2.36 1.65 3.24l1.03 1.03c.39.39.62.91.65 1.46l2.68 21.96c.08.63-.42 1.19-1.05 1.19h-.01zm3.01-22.46l2.11 20.42c.12 1.15 1.1 2.01 2.26 1.98l35.64-.89a2.211 2.211 0 002.15-2.37l-1.91-27.3c-.03-.46-.21-.9-.5-1.26l-2.72-3.29c-.44-.54-1.11-.83-1.81-.8l-19.9.95s-11 1-10-5 8-13 16-12c4.95.62 10.66 5.06 14.3 8.36 1.42 1.29 3.7.28 3.7-1.64V65.89c0-.59-.23-1.15-.65-1.56l-3.98-3.98c-.25-.25-.55-.43-.88-.54-3.07-.98-19.07-5.26-24.49 9.17-6 16-7 18-6 20s26 16 27 18 0 8-4 10-10.34 3.81-13.54-3.78c-.36-.86-.87-1.67-1.51-2.36-3.31-3.59-5.72-6.18-7.45-8.05-1.45-1.56-4.04-.37-3.82 1.74v.01zm-36.071-20.5l3.59-15.58c.37-1.6-1.07-3.03-2.66-2.65l-10.64 2.5c-1.4.33-2.12 1.87-1.47 3.15 2.16 4.25 4.57 19.53-.43 24.53-5.52 5.52-9 5-14 3-4.15-1.66-6.63-13.38-6.6-22.36 0-1.6-1.61-2.69-3.08-2.06l-3.1 1.33c-.15.06-.3.11-.46.14l-13.51 2.53a2.207 2.207 0 00-1.75 2.65L1.369 86a2.2 2.2 0 002.34 1.72c3.72-.32 11.4.07 9.1 9.26-1.4 5.61-3.45 7.79-4.35 9.28-1.65 2.72-5.36 5.06-7.32 8.18-.22.35-.3.76-.25 1.16l1.64 10.64c.16 1.02.99 1.79 2.02 1.87l8.79.68c1.3.1 2.4-.93 2.38-2.23-.09-6.88.76-25.87 13.08-22.58 11.4 3.04 7.21 15.89 4.54 21.89-.65 1.46.42 3.11 2.02 3.11h4.48c1.1 0 2.03-.8 2.19-1.89.03-.22.06-.44.1-.68.9-6.05 2.38-12 4.4-17.77l4.25-12.13c1.43-4.09 2.64-8.26 3.62-12.49l.02.02zM80.17 0H69.5c-.93 0-1.69.76-1.69 1.69v42.1c0 1.22.99 2.21 2.21 2.21h11c.99 0 1.86-.66 2.13-1.62.71-2.59 2.82-7.38 8.66-7.38 3.91 0 6.15.24 7.41.48.931.18 1.651.92 1.781 1.86l.54 3.76c.16 1.09 1.09 1.9 2.19 1.9h27.13c1.12 0 2.06-.83 2.2-1.94l.59-4.74c.1-.82-.26-1.62-.93-2.09L81.141.3c-.28-.2-.62-.3-.97-.3zm-5.86 33.5c-5-1-2-26-2-26 1-2 30.691 20.81 28.001 24.8-2.5 3.7-21 2.2-26 1.2zM66.2 43.79v-11.8c0-.6-.24-1.17-.67-1.58l-6.97-6.8c-.4-.39-.63-.91-.66-1.46L56.86 3.79c-.03-.5-.27-.96-.67-1.26l-1.94-1.46c-.78-.58-1.88-.39-2.42.41l-.81 1.22c-.13.2-.22.42-.26.65l-1.04 17.46c-.34 1.93-4.82 2.51-5.97.92-3.35-4.65-8.55-11.38-10.81-14.29-.6-.78-1.74-.88-2.46-.22C25.11 12.09 5.31 30.04.76 34.02c-.59.51-.86 1.29-.72 2.05l1.45 8.1a2.22 2.22 0 002.18 1.82h25.94c1.22 0 2.21-.99 2.21-2.21v-7.54c0-1.22-.99-2.21-2.21-2.21h-7.57a2.21 2.21 0 01-2.21-2.21v-1.8c0-.65.29-1.27.78-1.69l10.87-9.2c.79-.67 1.93-.7 2.76-.08l11.68 8.76c1.33 1 3.24.23 3.51-1.41l3.04-18.25c.04-.22.36-.19.36.03v35.6c0 1.22.99 2.21 2.21 2.21H64c1.22 0 2.21-.99 2.21-2.21l-.01.01z"/></g></g><defs><clipPath id="clip0_513_1348"><path fill="#fff" d="M0 0h133v129H0z"/></clipPath><clipPath id="clip1_513_1348"><path fill="#fff" d="M0 0h133.67v129H0z"/></clipPath></defs></svg>