<svg width="64" height="64" fill="none" xmlns="http://www.w3.org/2000/svg"><g clip-path="url(#clip0_701_1936)"><path d="M0 .802v62.396h64V.802H0zm2.666 2.666h58.666V60.53H2.666V3.468zm12.802 11.948c0-.178.376-.312.594-.312 2.29-.097 4.583-.143 6.876-.136 7.396 0 10.27 4.052 10.27 9.24 0 6.782-4.916 9.688-10.938 9.688-1.02 0-1.364-.052-2.072-.052v10.25c0 .218-.084.312-.302.312H15.77c-.218 0-.302-.084-.302-.302V15.416zm4.73 14.168c.614.042 1.104.042 2.166.042 3.114 0 6.052-1.104 6.052-5.322 0-3.386-2.104-5.104-5.666-5.104a34.98 34.98 0 00-2.552.084v10.3zm22.958-3.178c-2.114 0-2.822 1.062-2.822 1.938 0 .968.48 1.626 3.302 3.084 4.178 2.032 5.5 3.958 5.5 6.822 0 4.26-3.26 6.552-7.656 6.552-2.334 0-4.322-.49-5.468-1.146-.166-.084-.208-.218-.208-.438v-3.916c0-.26.126-.354.302-.218a9.8 9.8 0 005.364 1.584c2.114 0 2.99-.876 2.99-2.072 0-.968-.614-1.802-3.292-3.208-3.792-1.812-5.376-3.656-5.376-6.74 0-3.438 2.688-6.292 7.344-6.292 2.292 0 3.906.354 4.792.74.218.136.26.354.26.532v3.656c0 .218-.136.354-.396.26-1.188-.698-2.938-1.146-4.646-1.146l.01.008z" fill="#2EB2DB"/></g><defs><clipPath id="clip0_701_1936"><path fill="#fff" d="M0 0h64v64H0z"/></clipPath></defs></svg>