<svg width="64" height="64" fill="none" xmlns="http://www.w3.org/2000/svg"><path d="M14.116 9.595a28.667 28.667 0 11-4.302 4.25M40.107 35.59s-3.38 1.111-3.454 3.478m-6.066-4.859s-1.131-5.7 4.429-4.577" stroke="#2EB2DB" stroke-width="3" stroke-linecap="round" stroke-linejoin="round"/><path d="M39.215 49.68c12.141-8.724.894-14.084.894-14.084s-4.853-5.31-5.097-5.964c-.223-.597.29-3.313-7.8-10.152-8.09-6.839-22.19-16.088-22.19-16.088a1.52 1.52 0 00-1.38.28 1.52 1.52 0 00-.234 1.387s9.69 13.8 16.781 21.67c7.092 7.871 9.79 7.272 10.394 7.476.66.223 6.069 4.863 6.069 4.863a6.212 6.212 0 001.925 4.9s3.416 2.664.638 5.713v-.001z" stroke="#2EB2DB" stroke-width="3" stroke-linecap="round" stroke-linejoin="round"/></svg>